<?xml version="1.0" standalone="no"?>
<!DOCTYPE svg PUBLIC "-//W3C//DTD SVG 20010904//EN"
 "http://www.w3.org/TR/2001/REC-SVG-20010904/DTD/svg10.dtd">
<svg version="1.0" xmlns="http://www.w3.org/2000/svg"
 width="700.000000pt" height="700.000000pt" viewBox="0 0 700.000000 700.000000"
 preserveAspectRatio="xMidYMid meet">
<metadata>
Created by potrace 1.14, written by Peter Selinger 2001-2017
</metadata>
<g transform="translate(0.000000,700.000000) scale(0.100000,-0.100000)"
fill="#000000" stroke="none">
<path d="M2631 6978 c-10 -25 -93 -228 -146 -353 -18 -44 -99 -240 -180 -435
-80 -195 -150 -364 -155 -375 -18 -42 -61 -145 -110 -265 -28 -69 -73 -177
-100 -240 -26 -63 -118 -286 -205 -495 -225 -543 -235 -568 -245 -590 -5 -11
-19 -45 -31 -75 -11 -30 -27 -68 -34 -85 -8 -16 -46 -109 -86 -205 -39 -96
-105 -256 -147 -355 -219 -528 -292 -709 -286 -714 3 -3 483 -6 1067 -6 1048
-1 1062 -1 1062 -20 1 -11 -7 -58 -16 -105 -10 -47 -20 -103 -23 -125 -4 -23
-9 -52 -12 -65 -5 -27 -8 -42 -19 -105 -3 -22 -8 -48 -11 -57 -6 -19 -9 -36
-19 -98 -4 -25 -9 -54 -11 -65 -5 -27 -65 -343 -70 -375 -3 -14 -16 -88 -31
-165 -14 -77 -27 -151 -29 -165 -3 -14 -13 -70 -24 -125 -10 -55 -21 -113 -24
-130 -15 -84 -58 -318 -86 -465 -17 -91 -33 -178 -35 -195 -3 -16 -8 -41 -10
-55 -10 -49 -48 -255 -61 -330 -3 -14 -7 -32 -9 -40 -3 -8 -7 -33 -10 -55 -6
-44 -8 -44 45 24 14 18 52 67 85 109 33 43 95 122 138 177 151 196 615 794
782 1009 94 119 179 230 190 245 11 15 70 92 132 171 114 149 141 184 588 760
143 184 264 340 270 346 5 7 18 22 27 35 21 29 162 212 227 294 44 55 421 543
620 800 46 61 110 142 140 181 31 39 67 86 81 104 14 18 73 95 133 172 59 76
107 140 107 143 0 2 -450 3 -1000 2 -550 -1 -1000 1 -1000 5 0 4 37 83 81 175
45 93 108 224 141 293 33 69 96 199 140 290 45 91 107 219 138 285 32 66 93
192 135 280 43 88 106 219 140 290 34 72 97 202 140 290 151 313 225 467 225
471 0 2 -585 4 -1300 4 l-1300 0 -9 -22z m1734 -529 c3 -4 -36 -87 -323 -679
-144 -299 -225 -466 -277 -575 -29 -60 -96 -200 -150 -310 -53 -110 -133 -276
-178 -370 -45 -93 -112 -230 -148 -305 l-66 -135 879 -3 c483 -1 878 -5 878
-8 0 -3 -82 -111 -182 -241 -101 -129 -211 -272 -246 -317 -34 -44 -68 -88
-75 -96 -7 -8 -35 -44 -62 -80 -27 -36 -55 -72 -62 -80 -7 -8 -94 -121 -194
-250 -100 -129 -192 -248 -205 -265 -13 -16 -60 -77 -105 -135 -106 -137 -130
-168 -155 -199 -11 -14 -51 -66 -88 -114 -37 -49 -74 -96 -82 -105 -7 -9 -21
-26 -29 -37 -14 -19 -15 -18 -10 20 3 23 8 52 11 65 4 23 25 130 39 210 4 19
13 69 21 110 7 41 16 91 19 110 4 19 10 53 15 75 5 22 11 56 14 75 3 19 7 44
9 55 3 11 7 36 11 55 3 19 8 44 10 55 5 27 34 184 40 215 2 14 7 43 11 65 4
22 9 48 12 58 4 16 -48 17 -986 17 -545 0 -991 4 -991 8 0 4 68 172 151 372
83 201 166 401 184 445 62 152 497 1200 510 1230 7 17 39 93 70 170 32 77 65
158 75 180 9 22 79 192 156 377 l139 337 60 3 c86 4 1295 1 1300 -3z"/>
</g>
</svg>
