<svg xmlns="http://www.w3.org/2000/svg" version="1.0" viewBox="0 0 1133.859 1133.858"><path fill="#d6d6d5" d="M276.236,907.1c0,2.964,2.402,5.367,5.366,5.367h72.609l-30.537,98.868l97.575-98.868h471.983 c2.962,0,5.365-2.403,5.365-5.367V647.148c0-2.964-2.403-5.367-5.365-5.367H281.603c-2.964,0-5.366,2.403-5.366,5.367V907.1z"/><path fill="#d6d6d5" d="M834.425,394.172l-1.625-10.575l10.572-1.626c1.359-0.208,2.289-1.476,2.08-2.834 c-0.21-1.357-1.477-2.289-2.836-2.08l-10.572,1.626l-1.626-10.574c-0.208-1.354-1.479-2.288-2.835-2.077 c-1.356,0.206-2.288,1.479-2.079,2.834l1.627,10.572l-10.573,1.626c-1.357,0.21-2.291,1.479-2.08,2.837 c0.208,1.356,1.479,2.286,2.836,2.08l10.571-1.628l1.626,10.573c0.209,1.356,1.48,2.289,2.834,2.08 C833.703,396.798,834.635,395.529,834.425,394.172z"/><path fill="#d6d6d5" d="M797.107,554.239l-1.626-10.573l10.572-1.627c1.359-0.208,2.289-1.477,2.08-2.834 c-0.209-1.358-1.478-2.289-2.835-2.08l-10.572,1.623l-1.628-10.57c-0.207-1.355-1.477-2.288-2.834-2.08 c-1.356,0.21-2.288,1.48-2.081,2.835l1.627,10.575l-10.573,1.624c-1.356,0.21-2.291,1.478-2.081,2.837 c0.209,1.355,1.479,2.287,2.837,2.08l10.573-1.628l1.624,10.575c0.209,1.355,1.481,2.287,2.837,2.08 C796.384,556.867,797.316,555.597,797.107,554.239z"/><path fill="#29f399" d="M1014.471,604.527c-2.535,7.251-12.987,14.169-12.987,14.169s-45.103,34.853-58.961,42.587 c-1.675,0.938-2.803,1.551-3.273,1.736c-4.354,1.803-10.507,4.339-10.507,4.339s-27.89-15.566-48.184-35.858 c-14.956-14.957-17.695-17.697-18.102-18.104c0,0-3.634,6.154-11.963,6.875c-8.333,0.719-6.155,1.817-8.333,5.432 c-2.176,3.619-4.711,7.973-5.794,7.251c-1.08-0.719,1.083-7.251,1.083-11.964c0-4.697-4.698,7.252-7.235,10.148 c-2.537,2.896-4.034,2.113-6.155,0.72c-2.176-1.43-2.128-2.521-2.176-2.521c0,0,6.874-14.862,9.052-21.733 c2.176-6.892,14.123-19.937,18.478-23.554c4.338-3.617,13.044-9.787,26.809,0c12.746,9.068,48.137,27.106,53.318,29.737 c0.424,0.221,0.643,0.329,0.643,0.329s31.883-63.388,44.566-74.615c0,0,15.918-10.461,36.573,4.025 C1031.977,558.012,1017.007,597.293,1014.471,604.527z"/><path fill="#002464" d="M1021.478,609.403c-2.537,7.251-14.862,14.127-14.862,14.127s-50.234,30.019-64.092,37.753 c-2.756-12.573-8.753-33.323-12.982-47.495c0.424,0.221,0.643,0.329,0.643,0.329s31.883-63.388,44.566-74.615 c0,0,18.462-18.84,39.118-4.354C1034.521,549.631,1024.013,602.169,1021.478,609.403z"/><path fill="#002464" d="M898.601,636.514c0,2.909-2.36,5.268-5.271,5.268H774.553c-2.91,0-5.27-2.358-5.27-5.268l0,0 c0-2.909,2.36-5.269,5.27-5.269h118.778C896.241,631.245,898.601,633.604,898.601,636.514L898.601,636.514z"/><path fill="#002464" d="M774.749,641.357c-2.677,1.144-5.771-0.098-6.916-2.775l-46.689-109.215 c-1.144-2.676,0.098-5.772,2.773-6.917l0,0c2.675-1.145,5.773,0.098,6.917,2.773l46.689,109.219 C778.667,637.119,777.425,640.213,774.749,641.357L774.749,641.357z"/><path fill="#002464" d="M927.895,479.024c-3.77-1.755-5.333-8.93-3.635-16.688c1.875-8.562,6.814-14.512,11.243-13.544 c0.314,0.069,0.623,0.174,0.919,0.312c3.771,1.756,5.334,8.932,3.635,16.689c-1.876,8.564-6.814,14.51-11.242,13.542 C928.499,479.268,928.19,479.162,927.895,479.024z M935.968,450.077c-0.225-0.104-0.457-0.185-0.695-0.234 c-3.712-0.813-8.277,5.016-9.965,12.723c-1.568,7.162-0.232,13.965,3.039,15.487c0.225,0.104,0.459,0.184,0.696,0.233 c3.712,0.813,8.275-5.012,9.964-12.721C940.576,458.403,939.24,451.601,935.968,450.077z"/><path fill="#002464" d="M980.576,543.98c0,0-11.971,13.393-14.489,27.168c-2.517,13.776-7.843,97.444-11.709,101.791 c-3.866,4.345,70.391,3.622,104.08,48.899c7.609,10.145,18.837,23.908,19.925,28.62c1.086,4.708,43.831-65.205-5.796-157.574 C1022.959,500.512,982.452,541.716,980.576,543.98z"/><path fill="#29f399" d="M950.225,442.801c1.333-0.543-10.148,4.06-13.188,26.632c-1.742,12.946-8.544,21.804-8.544,21.804 s6.896,2.279,10.469,1.83c3.047,6.534,12.946,12.728,29.008,11.519c8.817-0.66,13.218,1.767,13.218,1.767 s8.479,34.249,4.919,41.897c-3.561,7.649,30.867-6.318,30.867-6.318s-18.571-48.979-16.592-53.229 c1.978-4.25,16.833-32.379,0.58-28.568c-16.253,3.813-19.487-17.465-26.684-19.781 C967.083,438.037,950.225,442.801,950.225,442.801z"/><path fill="#002464" d="M1002.79,501.055c0,0,45.716-15.294,27.024-63.551c-1.956-5.904-5.064-10.404-8.844-13.816 c-17.079-15.419-58.496-15.173-58.496-15.173s-35.969,10.2-51.046,33.147c9.06,22.599,45.724,30.853,64.414,32.76 c18.689,1.908,20.207-1.69,20.207-1.69s3.278-7.034,2.612-10.555c-0.667-3.523,10.861-2.984,9.46,4.45 c-1.4,7.436-7.993,18.01-7.739,22.075C1000.633,492.765,1002.79,501.055,1002.79,501.055z"/><path fill="#002464" d="M1015.908,427.035c0,0,1.306-10.192,14.319-15.311c19.075-7.504,56.095,29.707,23.929,55.891 c-26.742,21.768-31.933-6.075-32.046-10.123C1021.995,453.443,1015.908,427.035,1015.908,427.035z"/><path fill="#29f399" d="M1030.808,607.564c-2.538,7.25-12.986,14.169-12.986,14.169s-45.102,34.853-58.962,42.585 c-1.675,0.942-2.803,1.552-3.272,1.741c-4.354,1.799-10.507,4.337-10.507,4.337s-27.891-15.565-48.184-35.858 c-14.954-14.956-17.696-17.695-18.102-18.104c0,0-3.635,6.154-11.964,6.876c-8.331,0.719-6.155,1.817-8.331,5.434 c-2.176,3.616-4.714,7.971-5.794,7.249c-1.08-0.719,1.08-7.249,1.08-11.964c0-4.696-4.698,7.251-7.233,10.148 c-2.538,2.896-4.035,2.112-6.154,0.722c-2.178-1.433-2.131-2.522-2.178-2.522c0,0,6.876-14.86,9.052-21.734 c2.175-6.893,14.125-19.936,18.478-23.551c4.336-3.619,13.044-9.789,26.808,0c12.747,9.065,48.137,27.104,53.32,29.734 c0.422,0.22,0.643,0.33,0.643,0.33s31.882-63.389,44.567-74.617c0,0,15.917-10.458,36.571,4.025 C1048.314,561.049,1033.344,600.331,1030.808,607.564z"/><path fill="#1bd5e9" d="M940.476,768.753c-2.913,3.444-22.017,16.413-33.45,29.079c-4.352,4.824-7.594,9.584-8.422,13.779 c-3.023,15.128-6.454,80.003-16.742,121.938c-0.077,0.315-0.156,0.627-0.233,0.939c-0.674,2.694-1.364,5.312-2.053,7.815 c-10.083,36.438-21.766,53.318-21.766,69.354c0,17.147-6.67,29.534-6.67,29.534s-10.475,2.85-25.712,3.806 c-15.253,0.955-60.023,1.894-75.26,0c-15.236-1.91-22.862-11.432-23.816-20.015c-0.956-8.564,6.671-14.281,17.146-15.235 c10.476-0.954,43.816-4.761,45.726-9.521c1.91-4.776,7.627-51.441,6.672-60.964c-0.205-1.956,0.125-10.615,0.844-23.284 c0.547-9.441,1.33-21.123,2.288-33.918c3.976-53.601,11.086-126.73,17.819-137.127c0.25-0.377,0.548-0.769,0.892-1.175 c14.407-16.864,113.671-55.028,113.671-55.028S944.5,763.991,940.476,768.753z"/><path fill="#002464" d="M960.333,673.95c-0.032,0.987-0.266,1.427-0.736,1.223C959.157,674.985,959.44,674.563,960.333,673.95z"/><path fill="#002464" d="M1037.813,612.442c-2.536,7.249-14.859,14.124-14.859,14.124s-50.234,30.02-64.094,37.752 c-2.755-12.572-8.753-33.321-12.982-47.493c0.422,0.22,0.643,0.33,0.643,0.33s31.882-63.389,44.567-74.617 c0,0,18.461-18.837,39.116-4.353S1040.351,605.206,1037.813,612.442z"/><path fill="#002464" d="M881.862,933.55c-0.077,0.315-0.156,0.627-0.233,0.939c-10.477,41.922-23.819,60.024-23.819,77.17 c0,17.147-6.67,29.534-6.67,29.534s-10.475,2.85-25.712,3.806c-15.253,0.955-60.023,1.894-75.26,0 c-15.236-1.91-22.862-11.432-23.816-20.015c-0.956-8.564,6.671-14.281,17.146-15.235c10.476-0.954,43.816-4.761,45.726-9.521 c1.91-4.776,7.627-51.441,6.672-60.964c-0.205-1.956,0.125-10.615,0.844-23.284C819.053,920.804,859.173,929.354,881.862,933.55z"/><path fill="#002464" d="M981.989,859.891c0.109-0.657,0.266-0.91,0.5-0.706C982.662,859.325,982.49,859.561,981.989,859.891z"/><path fill="#002464" d="M945.396,486.271c-5.517-2.567-8.345-9.812-6.722-17.224c1.843-8.421,8.8-14.077,15.51-12.61 c0.722,0.158,1.429,0.397,2.1,0.709c5.519,2.569,8.347,9.814,6.724,17.229c-1.845,8.419-8.801,14.074-15.51,12.607 C946.774,486.824,946.068,486.584,945.396,486.271z M955.831,458.118c-0.6-0.279-1.231-0.491-1.877-0.633 c-6.13-1.341-12.516,3.947-14.231,11.791c-1.517,6.926,1.061,13.664,6.125,16.021c0.601,0.28,1.233,0.493,1.877,0.634 c6.13,1.343,12.515-3.944,14.232-11.788C963.475,467.216,960.898,460.478,955.831,458.118z"/><path fill="#00a3b7" d="M907.026,797.832c-4.352,4.824-7.594,9.584-8.422,13.779c-3.023,15.128-6.454,80.003-16.742,121.938 c-0.077,0.315-0.156,0.627-0.233,0.939c-0.674,2.694-1.364,5.312-2.053,7.815c-16.411-14.469-53.257-41.013-80.549-60.242 c3.976-53.601,11.086-126.73,17.819-137.127c0.25-0.377,0.548-0.769,0.892-1.175C846.802,755.52,879.78,777.224,907.026,797.832z"/><path fill="#1bd5e9" d="M1086.42,737.357c0,0-13.075,33.305-43.689,50.452c-30.597,17.133-109.662,16.192-125.868,9.521 c7.954,13.013,21.186,47.415,29.046,75.306c2.506,8.878,4.479,17.1,5.544,23.753c0.843,5.216,1.659,10.618,2.458,15.959 c3.446,22.987,6.547,45.317,9.63,50.719c3.805,6.671-18.556,46.682-32.133,59.069c-13.592,12.384-31.067,22.204-32.805,23.958 c-1.739,1.755-6.5,3.962-16.975,0c-10.477-3.962-9.146-11.574-7.91-23.003c1.237-11.433,15.52-27.623,19.339-38.115 c3.807-10.478,12.043-17.133,5.546-20.951c-4.387-2.571-30.756-31.586-52.585-61.354c-10.476-14.298-19.903-28.783-25.352-40.572 c-16.818-36.346-40.966-87.629-40.009-158.129c49.529-49.531,167.992-31.46,188.489-27.043c8.238,1.769,24.304,6.342,42.39,13.389 C1038.488,700.823,1069.882,716.843,1086.42,737.357z"/><path fill="#00a3b7" d="M1086.42,737.357c0,0-13.075,33.305-43.689,50.452c-30.597,17.133-109.662,16.192-125.868,9.521 c7.954,13.013,21.186,47.415,29.046,75.306c2.506,8.878,4.479,17.1,5.544,23.753c0.843,5.216,1.659,10.618,2.458,15.959 c-11.837,0.877-22.563-2.991-26.213-17.085c-8.91-34.451-49.029-128.406-33.134-131.538c15.893-3.131,34.214,7.83,69.401-13.044 c23.189-13.747,39.304-42.421,47.571-60.366C1038.488,700.823,1069.882,716.843,1086.42,737.357z"/><path fill="#002464" d="M963.542,963.067c3.805,6.671-18.556,46.682-32.133,59.069c-13.592,12.384-31.067,22.204-32.805,23.958 c-1.739,1.755-6.5,3.962-16.975,0c-10.477-3.962-9.146-11.574-7.91-23.003c1.237-11.433,15.52-27.623,19.339-38.115 c3.807-10.478,12.043-17.133,5.546-20.951c-4.387-2.571-30.756-31.586-52.585-61.354c21.61-6.311,67.319-19.731,99.89-30.034 c2.506,8.878,4.479,17.1,5.544,23.753C955.916,924.015,959.736,956.398,963.542,963.067z"/><path fill="#FFF" d="M938.32,943.378c-0.229,0-0.461-0.073-0.657-0.226l-14.197-11.024c-0.372-0.288-0.512-0.783-0.347-1.224 l9.084-24.248l-18.02-10.463c-0.513-0.299-0.688-0.955-0.39-1.469c0.298-0.512,0.955-0.687,1.467-0.39l18.804,10.919 c0.453,0.264,0.649,0.814,0.466,1.306l-9.125,24.357l13.573,10.539c0.469,0.364,0.554,1.038,0.19,1.507 C938.957,943.236,938.64,943.378,938.32,943.378z"/><path fill="#FFF" d="M846.019,982.112c-0.433,0-0.84-0.266-1.002-0.693l-7.8-20.563c-0.136-0.358-0.071-0.763,0.17-1.059 l14.007-17.19l-18.17-10.396c-0.513-0.294-0.692-0.95-0.398-1.465c0.294-0.515,0.949-0.693,1.465-0.398l19.269,11.025 c0.273,0.156,0.464,0.424,0.521,0.734c0.058,0.311-0.023,0.631-0.223,0.874l-14.416,17.69l7.58,19.984 c0.21,0.556-0.068,1.174-0.623,1.384C846.275,982.09,846.147,982.112,846.019,982.112z"/><path fill="#FFF" d="M969.49,471.451c-0.012-0.006-0.024-0.012-0.036-0.018c-0.529-0.269-0.739-0.917-0.469-1.444 c5.855-11.485,3.609-42.061,3.586-42.368c-0.045-0.591,0.397-1.104,0.989-1.151c0.587-0.046,1.106,0.396,1.15,0.99 c0.098,1.278,2.314,31.482-3.814,43.506C970.635,471.48,970.01,471.693,969.49,471.451z"/><path fill="#FFF" d="M982.696,472.423c-0.538-0.251-0.77-0.889-0.52-1.426c2.84-6.102,1.789-27.901,1.778-28.121 c-0.03-0.591,0.427-1.096,1.019-1.125c0.594-0.026,1.095,0.427,1.125,1.019c0.045,0.919,1.084,22.555-1.978,29.133 C983.871,472.439,983.234,472.673,982.696,472.423z"/><path fill="#FFF" d="M1009.899,485.085c-0.254-0.117-0.462-0.336-0.561-0.621c-0.194-0.561,0.102-1.172,0.663-1.366 c23.079-7.995,18.511-28.508,18.305-29.378c-0.136-0.575,0.219-1.153,0.796-1.291c0.573-0.139,1.153,0.216,1.292,0.794 c0.056,0.231,5.256,23.262-19.69,31.904C1010.429,485.222,1010.144,485.199,1009.899,485.085z"/><path fill="#FFF" d="M1031.774,456.693c-1.225-0.57-2.31-1.416-3.246-2.531c-0.383-0.454-0.324-1.131,0.131-1.512 c0.454-0.381,1.13-0.319,1.511,0.133c1.456,1.732,3.297,2.598,5.629,2.645c11.398,0.229,29.096-19.06,29.273-19.252 c0.398-0.44,1.079-0.474,1.516-0.073c0.438,0.398,0.47,1.078,0.071,1.516c-0.751,0.826-18.533,20.203-30.902,19.955 C1034.302,457.544,1032.971,457.25,1031.774,456.693z"/><path fill="#FFF" d="M1048.57,443.113c-0.152-0.071-0.292-0.179-0.4-0.322c-0.359-0.472-0.269-1.145,0.204-1.504 c6.633-5.051,12.618-13.909,12.676-13.999c0.329-0.491,0.986-0.622,1.489-0.292c0.492,0.33,0.623,0.997,0.293,1.488 c-0.251,0.375-6.244,9.246-13.158,14.511C1049.346,443.245,1048.92,443.276,1048.57,443.113z"/><path fill="#FFF" d="M966.291,660.42c-0.313,0-0.626-0.138-0.837-0.401c-0.372-0.464-0.297-1.139,0.165-1.509 c2.167-1.738,53.203-42.582,63.827-44.515c0.581-0.112,1.143,0.28,1.248,0.863c0.107,0.584-0.28,1.143-0.864,1.249 c-8.077,1.468-44.654,29.475-62.867,44.076C966.764,660.343,966.526,660.42,966.291,660.42z"/><path fill="#FFF" d="M1027.731,632.319c-0.274,0-0.55-0.104-0.759-0.314c-4.871-4.871-16.254-4.974-16.37-4.974 c-0.593-0.003-1.071-0.486-1.068-1.079c0.002-0.59,0.482-1.069,1.074-1.069h0.003c0.503,0.004,12.388,0.114,17.878,5.604 c0.42,0.419,0.42,1.098,0,1.518C1028.28,632.215,1028.006,632.319,1027.731,632.319z"/><path fill="#FFF" d="M890.878,881.654c-0.258,0-0.518-0.092-0.723-0.28c-13.163-11.979-43.002-111.707-43.739-146.175 c-0.134-6.301,0.679-10.234,2.485-12.025c11.291-11.189,70.051,3.609,121.892,16.666c3.892,0.98,7.719,1.945,11.456,2.879 c21.012,5.255,38.248,2.179,51.226-9.146c9.697-8.467,13.262-18.637,13.298-18.739c0.191-0.559,0.801-0.859,1.362-0.668 c0.561,0.191,0.861,0.802,0.67,1.363c-0.146,0.423-15.078,42.279-67.077,29.272c-3.738-0.937-7.567-1.899-11.458-2.88 c-48.754-12.279-109.431-27.559-119.856-17.223c-0.927,0.917-2,3.476-1.851,10.453c0.765,35.856,31.531,134.162,43.037,144.634 c0.438,0.399,0.471,1.078,0.071,1.517C891.459,881.535,891.169,881.654,890.878,881.654z"/><path fill="#002464" d="M840.397,635.971c-0.169,0-0.341-0.039-0.5-0.124c-0.524-0.276-0.725-0.926-0.448-1.45 c0.04-0.075,3.982-7.55,7.049-14.318c0.246-0.539,0.88-0.776,1.42-0.533c0.541,0.244,0.778,0.881,0.535,1.42 c-3.094,6.827-7.066,14.359-7.107,14.434C841.156,635.764,840.783,635.971,840.397,635.971z"/><path fill="#00a3b7" d="M951.683,497.852c-3.417,0.174-12.585-3.67-9.888,0.547c1.932,2.262,0.098,2.41,2.433,2.633 C946.574,501.256,951.793,499.553,951.683,497.852"/><path fill="#002464" d="M998.966,473.468c-0.293-0.137-0.521-0.402-0.596-0.742c-0.601-2.725-0.219-4.896,1.135-6.455 c2.307-2.652,6.536-2.358,6.714-2.344c0.591,0.049,1.033,0.562,0.987,1.153c-0.045,0.589-0.562,1.033-1.152,0.986 c-0.082-0.006-3.355-0.204-4.936,1.618c-0.878,1.017-1.098,2.558-0.654,4.577c0.128,0.579-0.237,1.152-0.816,1.279 C999.411,473.594,999.173,473.563,998.966,473.468z"/><path fill="#002464" d="M1087.305,802.174c0,4.325-3.505,7.829-7.829,7.829H929.146c-4.323,0-7.829-3.504-7.829-7.829v-1.566 c0-4.324,3.505-7.828,7.829-7.828h150.329c4.324,0,7.829,3.504,7.829,7.828V802.174z"/><path fill="#002464" d="M1084.001,1048.241c-0.709,0-1.402-0.35-1.811-0.992L931.542,811.158c-0.638-1-0.345-2.326,0.654-2.964 c1.001-0.638,2.328-0.344,2.964,0.654l150.648,236.091c0.639,1,0.346,2.326-0.654,2.964 C1084.795,1048.133,1084.396,1048.241,1084.001,1048.241z"/><path fill="#002464" d="M913.992,1057.135c-0.401,0-0.807-0.111-1.168-0.347c-0.995-0.645-1.277-1.976-0.63-2.97l159.251-244.984 c0.647-0.995,1.974-1.275,2.97-0.629c0.994,0.645,1.276,1.975,0.629,2.968l-159.251,244.985 C915.384,1056.793,914.694,1057.135,913.992,1057.135z"/><path fill="#002464" d="M1060.452,1011.335H945.878c-1.185,0-2.146-0.962-2.146-2.147c0-1.185,0.961-2.146,2.146-2.146h114.574 c1.185,0,2.146,0.962,2.146,2.146C1062.598,1010.373,1061.637,1011.335,1060.452,1011.335z"/><circle cx="363.622" cy="715.169" r="39.947" fill="#FFF"/><path fill="#FFF" d="M613.406,714.939c0,2.964-2.403,5.366-5.366,5.366H439.265c-2.964,0-5.366-2.402-5.366-5.366v-3.779 c0-2.965,2.402-5.366,5.366-5.366H608.04c2.963,0,5.366,2.401,5.366,5.366V714.939z"/><path fill="#FFF" d="M777.948,797.26c0,2.963-2.404,5.365-5.367,5.365h-443.54c-2.964,0-5.366-2.402-5.366-5.365v-0.726 c0-2.965,2.402-5.366,5.366-5.366h443.54c2.963,0,5.367,2.401,5.367,5.366V797.26z"/><path fill="#FFF" d="M777.948,827.138c0,2.965-2.404,5.366-5.367,5.366h-443.54c-2.964,0-5.366-2.401-5.366-5.366v-0.726 c0-2.965,2.402-5.366,5.366-5.366h443.54c2.963,0,5.367,2.401,5.367,5.366V827.138z"/><path fill="#FFF" d="M777.948,856.584c0,2.965-2.404,5.367-5.367,5.367h-443.54c-2.964,0-5.366-2.402-5.366-5.367v-0.726 c0-2.964,2.402-5.366,5.366-5.366h443.54c2.963,0,5.367,2.402,5.367,5.366V856.584z"/><path fill="#002464" d="M709.633,591.949c0,4.349-3.524,7.873-7.875,7.873H385.364c-4.35,0-7.874-3.524-7.874-7.873V70.795 c0-4.348,3.524-7.874,7.874-7.874h316.395c4.35,0,7.875,3.526,7.875,7.874V591.949z"/><path fill="#FFF" d="M700.521,71.845v455.831H386.225V71.845h86.535c-4.348,0-7.874,3.527-7.874,7.874v3.229 c0,4.361,3.526,7.874,7.874,7.874h141.227c4.346,0,7.874-3.513,7.874-7.874v-3.229c0-4.347-3.528-7.874-7.874-7.874H700.521z"/><circle cx="543.374" cy="566.011" r="24.35" fill="#FFF"/><path fill="#03a3f7" d="M630.183,155.538c0,16.938-13.733,30.67-30.67,30.67H447.315c0,0-5.502,5.809-9.727,7.645 c-3.958,1.721-13.773,1.654-13.773,1.654s4.96-0.918,8.907-4.397c2.545-2.241,2.851-4.901,2.851-4.901h-4.144 c-16.938,0-30.67-13.731-30.67-30.67v-8.027c0-16.938,13.731-30.67,30.67-30.67h168.083c16.938,0,30.67,13.732,30.67,30.67V155.538 z"/><path fill="#03a3f7" d="M453.011,244.066c0,16.938,13.732,30.671,30.669,30.671h152.197c0,0,5.502,5.809,9.726,7.644 c3.959,1.722,13.774,1.654,13.774,1.654s-4.96-0.918-8.908-4.397c-2.544-2.242-2.85-4.9-2.85-4.9h4.144 c16.939,0,30.67-13.732,30.67-30.671v-8.028c0-16.938-13.731-30.669-30.67-30.669H483.68c-16.938,0-30.669,13.731-30.669,30.669 V244.066z"/><path fill="#03a3f7" d="M631.96,335.657c0,16.939-13.732,30.671-30.669,30.671H449.093c0,0-5.502,5.808-9.726,7.645 c-3.959,1.722-13.773,1.654-13.773,1.654s4.96-0.919,8.907-4.397c2.545-2.242,2.851-4.901,2.851-4.901h-4.144 c-16.938,0-30.67-13.731-30.67-30.671v-8.027c0-16.938,13.732-30.669,30.67-30.669h168.083c16.938,0,30.669,13.73,30.669,30.669 V335.657z"/><path fill="#002464" d="M454.788,424.187c0,16.938,13.733,30.67,30.67,30.67h152.195c0,0,5.504,5.809,9.728,7.645 c3.958,1.721,13.772,1.653,13.772,1.653s-4.958-0.919-8.906-4.397c-2.546-2.242-2.852-4.9-2.852-4.9h4.145 c16.938,0,30.67-13.731,30.67-30.67v-8.027c0-16.938-13.732-30.671-30.67-30.671H485.458c-16.938,0-30.67,13.732-30.67,30.671 V424.187z"/><circle cx="417.245" cy="505.629" r="4.338" fill="#002464"/><circle cx="448.673" cy="505.629" r="4.338" fill="#002464"/><circle cx="432.772" cy="505.629" r="4.339" fill="#002464"/><path fill="#FFF" d="M526.373,143.657c0,1.78-1.442,3.224-3.221,3.224h-82.817c-1.782,0-3.224-1.443-3.224-3.224l0,0 c0-1.78,1.442-3.223,3.224-3.223h82.817C524.931,140.435,526.373,141.877,526.373,143.657L526.373,143.657z"/><path fill="#FFF" d="M560.103,237.422c0,1.781-1.442,3.224-3.222,3.224h-82.818c-1.78,0-3.223-1.442-3.223-3.224l0,0 c0-1.779,1.443-3.223,3.223-3.223h82.818C558.661,234.199,560.103,235.643,560.103,237.422L560.103,237.422z"/><path fill="#FFF" d="M522.035,322.185c0,1.781-1.443,3.224-3.222,3.224h-82.817c-1.781,0-3.224-1.442-3.224-3.224l0,0 c0-1.779,1.442-3.222,3.224-3.222h82.817C520.592,318.963,522.035,320.405,522.035,322.185L522.035,322.185z"/><path fill="#FFF" d="M522.035,339.516c0,1.78-1.443,3.223-3.222,3.223h-82.817c-1.781,0-3.224-1.442-3.224-3.223l0,0 c0-1.78,1.442-3.223,3.224-3.223h82.817C520.592,336.293,522.035,337.735,522.035,339.516L522.035,339.516z"/><path fill="#29f399" d="M571.005,421.605c0,1.781-1.442,3.223-3.222,3.223h-82.818c-1.78,0-3.223-1.441-3.223-3.223l0,0 c0-1.779,1.443-3.222,3.223-3.222h82.818C569.563,418.384,571.005,419.826,571.005,421.605L571.005,421.605z"/><path fill="#FFF" d="M663.618,237.422c0,1.781-1.442,3.224-3.221,3.224h-82.818c-1.781,0-3.223-1.442-3.223-3.224l0,0 c0-1.779,1.442-3.223,3.223-3.223h82.818C662.176,234.199,663.618,235.643,663.618,237.422L663.618,237.422z"/><path fill="#03a3f7" d="M40.587,954.22c2.057,2.739,20.283,7.9,42.293,10.727c15.312,1.97,32.439,2.807,47.228,0.89 c17.041-8.529,55.354-80.296,68.994-106.612c3.085-6.002,4.918-9.646,4.918-9.646s2.826,73.249,2.354,105.793 c6.453,3.349,25.22-0.507,43.008-5.423c3.628-1.012,7.221-2.061,10.657-3.089c14.944-4.534,27.032-8.928,27.032-8.928 s17.441-109.282,18.61-147.109c1.168-37.846-5.929-192.351-6.087-176.114c-0.122,12.086-90.028,6.191-136.036,2.372l-1.099-0.088 c-15.226-1.272-25.375-2.284-25.375-2.284s-0.07,0.141-0.227,0.402c-1.9,3.645-16.429,31.915-21.678,61.215 c-5.635,31.393,14.928,37.218,14.928,37.218s-8.127,10.884-14.928,41.856C101.401,825.161,37.099,949.564,40.587,954.22z"/><path fill="#008bdd" d="M204.02,849.578c0,0,2.826,73.249,2.354,105.793c6.453,3.349,25.22-0.507,43.008-5.423 c1.377-27.801,10.309-213.977,2.337-229.69c-9.991,35.743-11.958,38.37-22.049,69.771c-10.093,31.399-19.299,44.711-30.568,69.194 C202.187,853.222,204.02,849.578,204.02,849.578z"/><path fill="#008bdd" d="M40.587,954.22c2.057,2.739,20.283,7.9,42.293,10.727c8.144-22.447,91.57-237.341,71.454-244.688 c-38.717-14.142,9.224-103.178,9.224-103.178l-1.099-0.088l-25.602-1.882c-1.9,3.645-16.429,31.915-21.678,61.215 c-5.635,31.393,14.928,37.218,14.928,37.218s-8.127,10.884-14.928,41.856C101.401,825.161,37.099,949.564,40.587,954.22z"/><path fill="#29f399" d="M244.637,994.91c0-2.908,17.645-48.743,17.645-48.743l-27.962,7.556l-7.706,38.279 c0,0,1.744,9.885,9.882,6.396C244.637,994.91,244.637,994.91,244.637,994.91z"/><path fill="#002464" d="M214.99,1053.629c6.4,8.721,12.784,5.808,23.84,7.551c11.04,1.744,55.217,11.058,71.506,9.889 c16.272-1.167,42.432-3.487,52.896-18.607c10.465-15.122,7.552-20.247,5.233-27.559c-0.891-2.789-2.529-3.661-4.414-3.573 c-3.085,0.104-6.801,2.702-8.963,3.573c-3.488,1.397-18.592,2.078-27.312,0c-8.72-2.091-25.743-4.411-36.119-13.131 c-10.394-8.72-20.284-12.628-20.284-12.628c0-0.173,9.89-24.588,0-19.934c-9.871,4.657-13.953,7.553-16.847,6.977 c-2.913-0.576-14.545-6.819-16.289,2.701c-1.744,9.508-8.72,5.6-14.527,0c-5.809-5.613-12.209,0.211-5.233,14.739 c0,11.772-3.245,26.195-3.47,32.806c-0.053,1.567,0.052,2.685,0.418,3.244C217.311,1042.57,208.606,1044.908,214.99,1053.629z"/><path fill="#29f399" d="M84.765,995.489c0,0,14.849-28.076,13.952-28.57c-0.896-0.493-27.934-3.812-27.934-3.812l-5.203,32.382 H84.765z"/><path fill="#002464" d="M9.77,1089.085c9.313,19.185,31.966,21.504,46.513,20.353c10.691-0.855,26.091-1.082,33.729-13.169 c2.737-4.344,4.482-10.219,4.64-18.224c0.575-30.241,3.68-33.607,4.099-36.049c0.297-1.658-1.587-7.205-3.524-12.56 c-1.36-3.747-2.774-7.392-3.487-9.537c-1.744-5.233-1.744-5.233-1.744-5.233c0.592-1.743,18.609-16.271,0-19.184 c-18.592-2.896-30.8-1.744-34.88,0c-4.064,1.744,2.336,12.208,4.08,19.184c1.745,6.977-29.073,22.691-38.369,30.817 c0,0,0,0.018-0.018,0.018C11.495,1053.646,0.474,1069.917,9.77,1089.085z"/><path fill="#002464" d="M134.036,963.991c0.266,0,0.529-0.119,0.703-0.347c0.24-0.313,24.278-31.846,51.202-79.789 c24.854-44.256,57.329-111.957,70.894-183.161c0.092-0.48-0.223-0.943-0.702-1.035c-0.484-0.089-0.943,0.225-1.034,0.703 c-13.52,70.971-45.908,138.486-70.698,182.628c-26.864,47.835-50.825,79.267-51.064,79.578c-0.297,0.388-0.224,0.943,0.164,1.24 C133.66,963.932,133.849,963.991,134.036,963.991z"/><path fill="#002464" d="M246.364,914.515c-0.433-7.364,0.886-53.25,6.248-73.412c-2.437-3.11-5.881-12.528,5.455-38.036 c13.511-30.399-7.697-49.363-7.913-49.551c-0.367-0.32-0.406-0.878-0.086-1.247c0.319-0.369,0.88-0.405,1.246-0.087 c0.225,0.195,22.424,19.978,8.369,51.603c-9.841,22.143-8.209,31.484-6.416,35.046c0.96-3.042,2.038-5.28,3.245-6.403 c2.921-2.719,4.915-2.637,6.078-2.09c1.57,0.738,2.452,2.775,2.3,5.313c-0.176,2.969-1.839,6.458-5.157,7.565 c-2.058,0.687-4.062,0.413-5.685-0.733c-4.786,19.51-6.429,63.283-5.921,71.93c0.028,0.486-0.343,0.905-0.83,0.934 c-0.018,0.002-0.036,0.002-0.053,0.002C246.782,915.347,246.393,914.984,246.364,914.515z M257.717,833.722 c-1.177,1.094-2.232,3.521-3.176,6.882c1.256,1.184,2.886,1.516,4.634,0.936c2.535-0.847,3.812-3.62,3.952-5.994 c0.104-1.747-0.415-3.197-1.29-3.609c-0.189-0.09-0.402-0.134-0.638-0.134C260.287,831.802,259.062,832.471,257.717,833.722z"/><path fill="#002464" d="M55.401,954.296c0.334,0,0.653-0.189,0.803-0.512c0.145-0.313,14.555-31.334,21.916-38.696 c7.508-7.508,13.959-15.694,14.022-15.775c0.14-0.178,0.206-0.401,0.186-0.627c-0.012-0.126-1.146-12.969,0.002-33.005 c0.249-4.367,1.13-7.11,2.618-8.155c1.541-1.081,3.791-0.409,6.174,0.3c3.561,1.061,7.989,2.381,9.774-3.568 c1.274-4.246,5.521-20.772,10.441-39.908c8.341-32.448,19.764-76.887,21.74-80.873c2.595-5.228,0.058-14.38-3.15-25.968 c-0.949-3.421-1.929-6.956-2.86-10.683c-3.941-15.763,12.548-47.198,12.715-47.514c0.229-0.432,0.063-0.967-0.368-1.195 c-0.433-0.229-0.966-0.062-1.194,0.367c-0.695,1.313-16.973,32.354-12.866,48.77c0.937,3.749,1.919,7.296,2.869,10.727 c3.109,11.224,5.565,20.089,3.273,24.711c-2.06,4.152-13.043,46.883-21.87,81.218c-4.915,19.117-9.158,35.629-10.422,39.84 c-1.217,4.063-3.553,3.582-7.578,2.383c-2.681-0.8-5.455-1.622-7.693-0.052c-2.008,1.409-3.078,4.428-3.367,9.501 c-1.049,18.324-0.201,30.694-0.027,32.91c-1.173,1.472-7,8.682-13.667,15.348c-7.583,7.583-21.675,37.916-22.271,39.204 c-0.206,0.441-0.013,0.969,0.431,1.172C55.151,954.271,55.277,954.296,55.401,954.296z"/><path fill="#29f399" d="M238.877,411.577c0,0,0.123,10.5,1.012,23.336c1.57,4.447,2.756,7.691,2.756,8.424 c0,1.447,9.819,27.049,18.782,46.774c4.606,3.209,10.082,6.401,16.256,9.487c10.447,5.215,15.989,6.909,29.873,10.955 c31.985,9.297,45.542,1.827,47.057-1.432c0.88-1.896,12.645-59.411,11.9-80.974c-0.988-28.654-7.244-68.42-1.437-73.077 c5.825-4.656,15.121-6.976,9.367-15.696c6.451-2.319,9.242-15.696-0.646-16.864c0-5.808,4.656-13.359-11.04-8.128 c-2.338-16.864-12.784-1.744-11.633-4.08c1.169-2.32,11.633-31.969,2.913-29.648c-7.552,2.021-12.051,26.699-13.133,33.274 c-0.942-0.417-3.768-0.331-11.163,1.605c-15.574,4.08-1.289,19.185-0.121,31.394c1.15,12.207-5.808,16.864-12.784,48.832 c-6.976,31.985-8.144,62.785-8.144,62.785s-5.216-3.646-13.447-10.377c-6.836-5.581-15.75-13.272-25.498-22.76 C248.226,404.48,238.877,411.577,238.877,411.577z"/><path fill="#002464" d="M241.098,410.778c0,0,0.123,10.498,1.012,23.335c1.57,4.447,2.755,7.691,2.755,8.424 c0,1.448,9.818,27.05,18.783,46.774l16.255,9.488c3.836-15.47,12.436-38.352,17.563-51.433 c-6.836-5.581-15.749-13.271-25.498-22.759C250.446,403.681,241.098,410.778,241.098,410.778z"/><path fill="#002464" d="M301.025,621.107c0,0,6.444-86.162-26.741-148.243c-33.187-62.084-26.261-56.148-33.187-62.084 c-9.833-4.278-31.188,6.272-35.333,5.111c-4.149-1.163-17.519-6.139-17.519-6.139s-37.208,136.941-43.02,153.801 c-5.813,16.858-13.372,54.646-13.372,54.646s59.879,32.557,121.501,20.348C281.282,632.23,301.025,621.107,301.025,621.107z"/><path fill="#29f399" d="M160.35,593.78c12.383,9.242,20.928,20.354,20.928,20.354s-3.609,15.643,0,19.184 c3.592,3.524-7.569,8.127-5.232,14.527c2.32,6.4,13.952-4.063,13.952-4.063s-2.98,25.011-0.364,31.399 c2.999,7.326,6.748,2.313,7.34-0.007c0.576-2.319,3.871-19.995,3.871-19.995s1.587,29.291,7.273,31.035 c5.704,1.744,5.128-6.384,5.128-6.384l0.017-14.545c0,0,6.384,10.465,9.872,9.889c3.488-0.575,1.151-17.44,0-24.417 c-1.168-6.976-1.168-12.208-1.168-12.208s14.528,0,13.952-3.487c-0.576-3.489-10.464-2.912-15.696-11.04 c-5.232-8.145-11.633-35.475-20.353-52.914c-8.722-17.44-23.441-37.776-23.441-37.776s12.401-25.585,14.72-34.88 c0,0,0-0.018,0.018-0.035c2.337-9.365,1.087-42.519,1.087-48.901c0-6.123,2.501-19.1,8.357-22.689 c0.018-0.05-15.112-28.273-35.309-15.001c-8.998,5.911-18.991,26.317-27.504,47.892c-11.597,29.335-20.474,60.814-20.474,60.814 S109.772,556.579,160.35,593.78z"/><path fill="#29f399" d="M228.361,305.438c0,0,34.084,44.419,18.509,63.364c-10.505,12.779-18.509,13.374-18.509,13.374 l3.255,27.276c0,0,14.763-1.7,15.214,9.93c0.319,8.197-2.347,15.881-17.135,17.616c-21.571,2.531-25.151-21.473-25.151-21.473 l8.704-1.957c0,0-1.671-23.097-7.483-25.421c-5.816-2.323-18.977-7.941-23.629-14.917c-2.091,0.377-10.746,0.806-15.397-8.495 c-4.65-9.303,4.653-12.791,11.63-8.14c6.976,4.651-15.295-18.604-12.881-29.067C167.903,317.064,228.361,305.438,228.361,305.438z"/><path fill="#1bd5e9" d="M152.118,317.699c2.145,18.765,17.527,28.427,17.527,28.427h6.976c0,0,98.799-14.65,80.854-70.79 c0-0.035-0.016-0.087-0.036-0.122c-10.881-33.764-45.415-44.438-46.496-44.753c0.698,0.942,20.58,28.045,7.186,37.185 c-13.603,9.313-54.885,2.336-64.181,32.56C151.944,306.712,151.542,312.554,152.118,317.699z"/><path fill="#1bd5e9" d="M161.502,357.758c0,0-12.208-19.185,0-24.417c12.209-5.232,19.768,24.417,19.768,24.417 s-18.173-10.11-14.531,6.978C169.461,368.743,161.502,357.758,161.502,357.758z"/><path fill="#002464" d="M137.798,459.716c19.395,3.209,53.351,38.735,53.351,38.735s0-0.018,0.018-0.035 c2.72-10.899,8.128-45.884,8.128-52.286c0-6.121,3.714-21.295,4.044-22.586c-0.035-0.07-0.051-0.157-0.085-0.227 c0-0.018,0-0.018-0.019-0.034c-1.535-2.25-17.737-24.731-37.934-11.459C156.304,417.735,146.311,438.142,137.798,459.716z"/><path fill="#002464" d="M233.876,363.067c0.027,0,0.053-0.001,0.081-0.003c1.557-0.142,6.704-0.785,7.548-3.118 c0.224-0.618,0.25-1.598-0.9-2.747c-2.698-2.698-5.144-13.794-5.858-17.841c-0.084-0.481-0.543-0.804-1.023-0.718 c-0.481,0.086-0.802,0.544-0.717,1.024c0.108,0.616,2.705,15.142,6.348,18.784c0.18,0.179,0.586,0.625,0.489,0.896 c-0.315,0.869-3.381,1.715-6.047,1.959c-0.486,0.045-0.845,0.475-0.8,0.961C233.038,362.724,233.423,363.067,233.876,363.067z"/><path fill="#002464" d="M231.616,410.337c0.093,0,0.187-0.016,0.28-0.047c0.463-0.154,0.713-0.654,0.558-1.117 c-2.004-6.018-2.972-22.491-3.171-26.263c2.813-0.59,12.2-3.37,19.301-15.034c8.303-13.642-7.896-44.933-8.589-46.258 c-0.226-0.433-0.759-0.599-1.193-0.373c-0.433,0.227-0.599,0.761-0.373,1.193c0.166,0.315,16.431,31.726,8.646,44.518 c-7.799,12.813-18.713,14.329-18.822,14.343c-0.457,0.059-0.795,0.457-0.773,0.917c0.037,0.834,0.963,20.504,3.299,27.516 C230.901,410.103,231.246,410.337,231.616,410.337z"/><path fill="#002464" d="M179.993,374.611c1.065,0,1.977-0.207,2.633-0.646c0.407-0.271,0.517-0.819,0.245-1.226 c-0.27-0.406-0.817-0.517-1.226-0.244c-1.306,0.868-5.236,0.202-8.785-2.15c-2.077-1.379-6.78-5.27-5.57-11.635 c0.245-1.297,0.845-2.155,1.831-2.624c3.149-1.493,9.534,1.26,11.727,2.448c0.429,0.231,0.966,0.073,1.199-0.356 c0.233-0.429,0.073-0.965-0.355-1.198c-0.355-0.192-8.721-4.677-13.328-2.49c-1.511,0.717-2.457,2.025-2.811,3.892 c-0.991,5.215,1.316,10.113,6.331,13.437C174.582,373.606,177.655,374.611,179.993,374.611z"/><path fill="#002464" d="M350.25,335.444c0.549,0,1.065-0.105,1.541-0.319c1.299-0.589,2.819-2.241,2.68-6.763 c-0.321-10.348-10.931-15.916-11.382-16.148c-0.436-0.222-0.966-0.052-1.189,0.382s-0.052,0.967,0.381,1.19 c0.102,0.052,10.135,5.335,10.422,14.631c0.086,2.769-0.497,4.578-1.642,5.098c-1.222,0.551-3.182-0.272-5.253-2.206 c-4.52-4.22-9.498-4.839-9.707-4.863c-0.488-0.062-0.924,0.292-0.98,0.776c-0.056,0.485,0.291,0.924,0.776,0.98 c0.044,0.005,4.628,0.594,8.704,4.398C346.595,334.463,348.574,335.444,350.25,335.444z"/><path fill="#002464" d="M352.122,338.679c1.483,0,3.006-0.988,4.534-2.946c0.949-1.217,9.209-12.215,6.95-23.646 c-0.787-3.973-2.43-6.205-4.884-6.635c-3.615-0.627-7.587,3.118-8.355,4.396c-0.252,0.418-0.117,0.961,0.301,1.213 c0.418,0.251,0.962,0.117,1.213-0.302c0.49-0.813,3.88-4.034,6.536-3.564c1.662,0.29,2.824,2.053,3.453,5.235 c2.109,10.661-5.709,21.065-6.607,22.217c-1.253,1.604-2.425,2.377-3.356,2.251c-1.098-0.152-1.908-1.561-2.105-2.043 c-0.186-0.452-0.705-0.666-1.153-0.482c-0.452,0.185-0.668,0.7-0.483,1.152c0.047,0.115,1.172,2.803,3.5,3.124 C351.816,338.668,351.969,338.679,352.122,338.679z"/><path fill="#002464" d="M356.697,339.363c1.871,0,4.326-0.6,6.981-2.836c1.187-0.998,11.643-12.085,11.643-20.313 c0-1.98-0.658-3.375-1.952-4.145c-3.276-1.948-9.31,1.228-9.988,1.596c-0.429,0.233-0.587,0.77-0.355,1.198 c0.234,0.429,0.771,0.588,1.2,0.355c1.598-0.868,6.193-2.85,8.241-1.63c0.73,0.436,1.087,1.293,1.087,2.625 c0,7.053-9.146,17.389-11.014,18.96c-4.629,3.898-8.358,1.933-8.515,1.848c-0.428-0.233-0.964-0.08-1.2,0.345 c-0.236,0.424-0.088,0.958,0.335,1.196C353.264,338.624,354.62,339.363,356.697,339.363z"/><path fill="#002464" d="M368.929,342.607c1.18,0,2.388-0.154,3.584-0.532c3.185-1.005,5.701-3.404,7.475-7.131 c1.749-3.673,1.968-6.748,0.652-9.141c-1.956-3.555-6.543-4.147-6.736-4.171c-0.487-0.055-0.926,0.288-0.984,0.771 c-0.058,0.484,0.287,0.925,0.77,0.984l0,0c0.039,0.004,3.896,0.516,5.408,3.275c1.02,1.865,0.784,4.395-0.705,7.52 c-1.555,3.267-3.712,5.354-6.411,6.206c-4.576,1.445-9.548-0.932-11.473-2.021c-0.424-0.24-0.964-0.091-1.205,0.335 c-0.241,0.425-0.091,0.964,0.334,1.204C361.279,340.836,364.938,342.607,368.929,342.607z"/><path fill="#002464" d="M222.263,676.206c0.453,0,0.798-0.076,1.013-0.144c0.318-0.017,0.702-0.15,1.059-0.479 c3.17-2.93,1.072-19.194-1.248-32.321c-1.554-8.805-5.747-27.501-5.789-27.688c-0.107-0.475-0.581-0.775-1.055-0.668 c-0.476,0.107-0.776,0.58-0.669,1.057c0.042,0.187,4.226,18.841,5.772,27.607c4.817,27.272,2.164,30.423,1.788,30.721 c-0.131,0-0.261,0.029-0.38,0.087c-0.017,0.008-3.834,1.397-8.683-9.452c-0.199-0.445-0.72-0.646-1.168-0.446 c-0.446,0.199-0.646,0.722-0.446,1.168c2.574,5.757,5.32,9.205,8.167,10.25C221.261,676.131,221.814,676.206,222.263,676.206z"/><path fill="#002464" d="M209.226,686.578c0.199,0,0.392-0.017,0.579-0.05c2.259-0.394,4.581-3.174,4.341-8.347 c-0.262-5.677-0.117-20.189-0.039-27.985c0.022-2.256,0.039-3.955,0.039-4.722c0-0.488-0.395-0.884-0.883-0.884 c-0.489,0-0.885,0.396-0.885,0.884c0,0.765-0.017,2.456-0.04,4.704c-0.077,7.813-0.224,22.358,0.041,28.084 c0.179,3.88-1.348,6.258-2.878,6.523c-1.4,0.239-2.757-1.229-3.561-3.838c-2.334-7.594-3.848-29.839-3.503-31.841 c0.002-0.015,0.005-0.029,0.008-0.042c0.092-0.478-0.22-0.939-0.696-1.035c-0.473-0.093-0.94,0.214-1.038,0.689 c-0.001,0.009-0.003,0.019-0.005,0.028c-0.211,1.1-0.518,3.316-0.905,6.118c-0.935,6.775-2.35,17.013-3.639,19.953 c-1.129,2.576-2.353,3.977-3.272,3.755c-1.859-0.45-4.203-6.877-3.638-15.923c0.673-10.823,1.612-18.687,1.622-18.765 c0.041-0.342-0.12-0.677-0.414-0.856c-0.293-0.183-0.665-0.177-0.951,0.014c-0.065,0.041-6.458,4.258-9.859,5.956 c-1.061,0.532-1.962-0.034-2.451-0.744c-1.198-1.74-0.78-5.177,2.963-8.608c0.36-0.33,0.385-0.89,0.055-1.249 c-0.329-0.359-0.888-0.385-1.249-0.056c-4.548,4.17-4.896,8.486-3.225,10.916c1.124,1.634,3.013,2.166,4.697,1.324 c2.467-1.234,6.32-3.659,8.469-5.041c-0.318,2.968-0.939,9.228-1.423,17c-0.5,8.011,1.229,16.841,4.986,17.75 c1.931,0.472,3.718-1.134,5.308-4.764c1.168-2.666,2.331-10.167,3.269-16.818c0.592,7.834,1.764,18.09,3.198,22.758 C205.417,685.254,207.488,686.578,209.226,686.578z"/><path fill="#002464" d="M176.43,534.215c0.19,0,0.383-0.062,0.545-0.188c0.384-0.302,0.451-0.857,0.149-1.241 c-0.084-0.106-8.493-10.751-19.496-19.437c-0.382-0.301-0.939-0.236-1.242,0.146c-0.302,0.383-0.236,0.939,0.146,1.242 c10.831,8.55,19.118,19.035,19.201,19.14C175.908,534.099,176.167,534.215,176.43,534.215z"/><path fill="#FFF" d="M214.99,1053.629c6.4,8.721,12.784,5.808,23.84,7.551c11.04,1.744,55.217,11.058,71.506,9.889 c16.272-1.167,42.432-3.487,52.896-18.607c10.465-15.122,7.552-20.247,5.233-27.559c-0.891-2.789-2.529-3.661-4.414-3.573 c-4.393,12.991-13.027,27.414-29.805,30.381c-31.828,5.598-82.964-4.867-94.893-10.099c-5.494-2.405-15.33-4.081-24.346-5.179 c-0.053,1.567,0.052,2.685,0.418,3.244C217.311,1042.57,208.606,1044.908,214.99,1053.629z"/><path fill="#FFF" d="M9.77,1089.085c9.313,19.185,31.966,21.504,46.513,20.353c10.691-0.855,26.091-1.082,33.729-13.169 c2.737-4.344,4.482-10.219,4.64-18.224c0.575-30.241,3.68-33.607,4.099-36.049c0.297-1.658-1.587-7.205-3.524-12.56 c-5.336,7.344-14.668,22.273-13.063,34.847c2.25,17.44-0.54,26.161-16.585,27.904c-16.046,1.744-37.741,1.448-47.438-13.952 c-9.487-15.048,2.146-31.969,2.667-32.734C11.495,1053.646,0.474,1069.917,9.77,1089.085z"/><path fill="#00a3b7" d="M152.118,317.699c2.145,18.765,17.527,28.427,17.527,28.427h6.976c0,0,98.799-14.65,80.854-70.79 c-1.815,11.058-6.959,23.771-20.162,30.921c1.9-10.516,4.361-17.963,1.571-31.496c-2.966,28.148-15.261,48.345-42.137,47.751 C177.267,322.076,161.518,315.223,152.118,317.699z"/><circle cx="246.505" cy="1029.808" r="8.484" fill="#FFF"/><ellipse cx="88.823" cy="1032.502" fill="#FFF" rx="2.788" ry="7.609"/><path fill="#FFF" d="M305.812,1029.879c0.187,0,0.362-0.12,0.421-0.308c1.204-3.782,7.526-7.44,7.591-7.477 c0.211-0.121,0.285-0.392,0.163-0.604c-0.121-0.213-0.39-0.284-0.604-0.163c-0.272,0.155-6.686,3.869-7.994,7.976 c-0.073,0.231,0.055,0.48,0.289,0.555C305.722,1029.873,305.768,1029.879,305.812,1029.879z"/><path fill="#FFF" d="M295.25,1027.552c0.167,0,0.328-0.096,0.403-0.259c1.785-3.925,8.236-8.302,8.301-8.345 c0.201-0.137,0.256-0.411,0.119-0.614s-0.413-0.255-0.613-0.12c-0.274,0.185-6.724,4.561-8.612,8.713 c-0.101,0.223-0.002,0.484,0.218,0.585C295.126,1027.538,295.188,1027.552,295.25,1027.552z"/><path fill="#FFF" d="M284.845,1025.334c0.185,0,0.357-0.116,0.42-0.302c2.142-6.411,10.092-10.225,10.173-10.262 c0.22-0.104,0.315-0.367,0.211-0.588c-0.104-0.221-0.369-0.315-0.588-0.212c-0.34,0.161-8.372,4.007-10.636,10.782 c-0.076,0.23,0.049,0.481,0.28,0.559C284.751,1025.327,284.799,1025.334,284.845,1025.334z"/><path fill="#FFF" d="M276.67,1017.517c0.146,0,0.289-0.072,0.374-0.206c4.291-6.791,11.64-7.433,11.713-7.438 c0.244-0.019,0.426-0.23,0.406-0.474c-0.017-0.245-0.255-0.44-0.474-0.407c-0.319,0.024-7.867,0.686-12.393,7.848 c-0.13,0.207-0.069,0.479,0.138,0.609C276.507,1017.494,276.589,1017.517,276.67,1017.517z"/><path fill="#FFF" d="M75.632,1027.552c0.112,0,0.224-0.043,0.31-0.128c0.173-0.17,0.176-0.448,0.006-0.622 c-0.175-0.179-4.392-4.334-15.283-1.657c-0.237,0.058-0.382,0.298-0.324,0.534c0.056,0.236,0.294,0.382,0.534,0.324 c10.355-2.541,14.403,1.377,14.442,1.417C75.404,1027.507,75.519,1027.552,75.632,1027.552z"/><path fill="#FFF" d="M75.632,1036.099c0.141,0,0.28-0.066,0.365-0.192c0.138-0.202,0.085-0.478-0.116-0.614 c-0.1-0.068-10.141-6.753-23.479-3.217c-0.237,0.063-0.377,0.304-0.314,0.54s0.303,0.379,0.54,0.313 c12.953-3.432,22.66,3.028,22.756,3.094C75.46,1036.074,75.546,1036.099,75.632,1036.099z"/><path fill="#FFF" d="M68.201,1042.414c0.132,0,0.262-0.059,0.349-0.17c0.15-0.192,0.116-0.471-0.077-0.621 c-0.241-0.188-6.019-4.572-16.07-1.941c-0.236,0.062-0.378,0.303-0.315,0.539c0.062,0.236,0.298,0.379,0.539,0.315 c9.628-2.521,15.247,1.741,15.303,1.784C68.011,1042.384,68.106,1042.414,68.201,1042.414z"/><path fill="#002464" d="M178.868,366.498c0.487,0,0.883-0.396,0.884-0.882c0.003-2.576-0.784-4.535-2.342-5.821 c-2.746-2.269-6.835-1.51-7.009-1.477c-0.478,0.093-0.791,0.555-0.699,1.034c0.093,0.479,0.551,0.795,1.034,0.702 c0.034-0.007,3.458-0.632,5.555,1.108c1.126,0.935,1.696,2.432,1.694,4.449C177.983,366.102,178.379,366.497,178.868,366.498 L178.868,366.498z"/><path fill="#002464" d="M213.263,408.542c0.486,0,0.883-0.394,0.883-0.882c0.016-6.034-5.003-17.079-5.218-17.546 c-0.202-0.443-0.725-0.642-1.171-0.436c-0.444,0.203-0.638,0.727-0.436,1.171c0.05,0.111,5.073,11.159,5.058,16.807 c0,0.487,0.394,0.885,0.881,0.886H213.263z"/><path fill="#002464" d="M318.045,391.365c0.406,0,0.772-0.281,0.861-0.694c2.328-10.654,9.851-31.104,9.927-31.31 c0.169-0.458-0.065-0.967-0.523-1.135c-0.458-0.172-0.965,0.064-1.135,0.522c-0.076,0.207-7.642,20.77-9.995,31.544 c-0.104,0.478,0.198,0.948,0.675,1.053C317.918,391.36,317.982,391.365,318.045,391.365z"/><path fill="#002464" d="M312.179,423.028c0.437,0,0.815-0.323,0.875-0.768c0.706-5.284,2.935-17.878,2.957-18.004 c0.086-0.481-0.234-0.939-0.716-1.025c-0.489-0.083-0.939,0.236-1.024,0.717c-0.023,0.126-2.26,12.756-2.969,18.079 c-0.065,0.483,0.275,0.928,0.759,0.992C312.101,423.025,312.139,423.028,312.179,423.028z"/><path fill="#002464" d="M341.004,515.938c6.685,0,13.869-5.885,14.171-6.136c0.153-0.126,0.259-0.3,0.301-0.493l3.241-14.981 c0.103-0.477-0.2-0.946-0.677-1.051c-0.479-0.1-0.948,0.2-1.051,0.678l-3.175,14.673c-1.261,0.984-7.392,5.543-12.81,5.543h-0.008 h-0.001c-0.488,0-0.884,0.395-0.884,0.883s0.396,0.885,0.883,0.885H341.004z"/><path fill="#002464" d="M119.72,543.599c0.207,0,0.413-0.07,0.581-0.217c0.368-0.32,0.406-0.878,0.086-1.246 c-4.637-5.33-2.361-20.386-2.199-21.407l4.776-15.875c0.141-0.467-0.125-0.961-0.593-1.102c-0.47-0.141-0.96,0.126-1.102,0.593 l-4.792,15.931c-0.011,0.036-0.02,0.073-0.026,0.11c-0.113,0.684-2.716,16.799,2.602,22.91 C119.228,543.496,119.473,543.599,119.72,543.599z"/><path fill="#002464" d="M299.786,739.357c0.489,0,0.884-0.396,0.884-0.884v-20.824c0-0.488-0.396-0.884-0.884-0.884 s-0.884,0.396-0.884,0.884v20.824C298.902,738.962,299.297,739.357,299.786,739.357z"/><path fill="#002464" d="M299.786,769.104c0.489,0,0.884-0.396,0.884-0.883v-12.395c0-0.488-0.396-0.884-0.884-0.884 s-0.884,0.396-0.884,0.884v12.395C298.902,768.709,299.297,769.104,299.786,769.104z"/><path fill="#002464" d="M230.177,780.013c0.36,0,0.698-0.22,0.83-0.578c3.444-9.354,11.35-40.432,11.429-40.743 c0.121-0.474-0.166-0.954-0.64-1.074c-0.471-0.121-0.953,0.163-1.073,0.639c-0.08,0.312-7.962,31.299-11.375,40.567 c-0.168,0.459,0.065,0.967,0.523,1.136C229.973,779.997,230.075,780.013,230.177,780.013z"/><path fill="#002464" d="M212.612,821.661c0.321,0,0.631-0.176,0.788-0.481c1.774-3.474,4.725-11.164,4.85-11.49 c0.175-0.456-0.054-0.967-0.509-1.142c-0.453-0.174-0.967,0.053-1.142,0.51c-0.03,0.078-3.042,7.929-4.773,11.317 c-0.221,0.436-0.049,0.968,0.385,1.189C212.339,821.63,212.476,821.661,212.612,821.661z"/><path fill="#002464" d="M120.373,699.196c0.208,0,0.417-0.072,0.585-0.221c0.367-0.322,0.401-0.881,0.078-1.247 c-5.206-5.901-2.727-11.424-2.618-11.656c0.205-0.442,0.016-0.968-0.425-1.175c-0.441-0.205-0.966-0.021-1.174,0.42 c-0.129,0.273-3.111,6.777,2.892,13.58C119.886,699.096,120.129,699.196,120.373,699.196z"/><path fill="#002464" d="M189.682,864.964c0.301,0,0.593-0.152,0.759-0.43c4.042-6.736,12.555-24.945,12.916-25.717 c0.206-0.441,0.015-0.967-0.427-1.175c-0.442-0.204-0.969-0.015-1.175,0.427c-0.088,0.189-8.835,18.897-12.83,25.556 c-0.251,0.419-0.115,0.962,0.303,1.213C189.37,864.924,189.527,864.964,189.682,864.964z"/><path fill="#002464" d="M173.129,896.806c0.287,0,0.57-0.14,0.739-0.398c4.429-6.74,11.791-21.623,11.863-21.773 c0.217-0.438,0.037-0.968-0.401-1.184c-0.436-0.217-0.967-0.036-1.184,0.401c-0.074,0.148-7.387,14.935-11.756,21.586 c-0.268,0.407-0.154,0.956,0.254,1.224C172.794,896.759,172.962,896.806,173.129,896.806z"/><path fill="#002464" d="M176.428,875.127c0.311,0,0.612-0.164,0.774-0.456c2.982-5.371,8.47-16.18,8.526-16.289 c0.221-0.435,0.047-0.966-0.389-1.188c-0.433-0.221-0.967-0.047-1.188,0.389c-0.055,0.107-5.529,10.888-8.495,16.231 c-0.237,0.426-0.083,0.965,0.344,1.201C176.135,875.091,176.283,875.127,176.428,875.127z"/><path fill="#002464" d="M128.028,960.493c0.233,0,0.465-0.092,0.638-0.272c6.742-7.023,24.422-34.207,25.17-35.36 c0.267-0.409,0.15-0.957-0.259-1.223c-0.409-0.267-0.958-0.148-1.224,0.261c-0.182,0.28-18.335,28.194-24.963,35.099 c-0.337,0.352-0.327,0.911,0.026,1.249C127.587,960.41,127.809,960.493,128.028,960.493z"/><path fill="#002464" d="M118.617,960.493c0.25,0,0.498-0.106,0.672-0.312c3.463-4.067,9.242-13.155,9.486-13.54 c0.262-0.413,0.139-0.959-0.273-1.221c-0.411-0.261-0.958-0.139-1.221,0.272c-0.059,0.094-5.954,9.369-9.338,13.342 c-0.316,0.373-0.271,0.93,0.1,1.247C118.21,960.424,118.414,960.493,118.617,960.493z"/><path fill="#002464" d="M212.613,805.343c0.365,0,0.707-0.228,0.834-0.592c2.577-7.369,6.517-18.859,6.557-18.975 c0.158-0.462-0.088-0.965-0.55-1.123c-0.461-0.155-0.964,0.088-1.123,0.549c-0.038,0.115-3.977,11.602-6.553,18.966 c-0.161,0.46,0.082,0.965,0.542,1.126C212.417,805.327,212.516,805.343,212.613,805.343z"/><path fill="#002464" d="M94.334,935.239c0.36,0,0.699-0.222,0.831-0.58l19.953-54.52c0.167-0.458-0.068-0.966-0.527-1.134 c-0.458-0.166-0.967,0.069-1.134,0.526l-19.953,54.52c-0.167,0.459,0.068,0.966,0.526,1.135 C94.131,935.223,94.233,935.239,94.334,935.239z"/><path fill="#002464" d="M288.724,907.979c0.419,0,0.792-0.299,0.868-0.727c0.802-4.404,2.851-31.781,2.937-32.944 c0.037-0.487-0.33-0.911-0.815-0.946c-0.505-0.045-0.911,0.328-0.947,0.815c-0.021,0.283-2.128,28.446-2.912,32.76 c-0.088,0.479,0.23,0.939,0.711,1.027C288.619,907.975,288.671,907.979,288.724,907.979z"/><path fill="#002464" d="M299.787,818.893c0.446,0,0.831-0.338,0.878-0.793l1.744-16.852c0.051-0.485-0.302-0.92-0.789-0.971 c-0.473-0.042-0.92,0.303-0.97,0.788l-1.745,16.854c-0.05,0.485,0.303,0.919,0.79,0.97 C299.726,818.891,299.756,818.893,299.787,818.893z"/><path fill="#002464" d="M212.614,885.968c0.424,0,0.798-0.307,0.871-0.738c1.251-7.46,0.062-32.93,0.012-34.01 c-0.023-0.488-0.475-0.864-0.925-0.841c-0.488,0.022-0.864,0.438-0.841,0.924c0.012,0.264,1.231,26.36,0.011,33.635 c-0.08,0.48,0.245,0.937,0.726,1.018C212.516,885.964,212.565,885.968,212.614,885.968z"/><path fill="#002464" d="M212.614,915.347c0.45,0,0.833-0.341,0.879-0.797c0.574-5.852,0.026-15.558,0.002-15.969 c-0.028-0.486-0.44-0.859-0.934-0.83c-0.486,0.027-0.859,0.444-0.831,0.933c0.005,0.099,0.563,9.979,0.003,15.693 c-0.047,0.485,0.307,0.918,0.792,0.966C212.556,915.345,212.585,915.347,212.614,915.347z"/><path fill="#002464" d="M219.169,896.806c0.429,0,0.806-0.313,0.872-0.75c1.032-6.792,0.051-21.262,0.009-21.874 c-0.034-0.487-0.44-0.844-0.944-0.82c-0.486,0.032-0.854,0.455-0.821,0.943c0.011,0.147,1.012,14.886,0.009,21.484 c-0.074,0.483,0.257,0.934,0.74,1.007C219.08,896.802,219.124,896.806,219.169,896.806z"/><path fill="#002464" d="M160.548,686.579c0.013,0,0.026,0,0.04,0c21.463-0.966,25.192-27.402,25.229-27.669 c0.063-0.484-0.277-0.928-0.761-0.992c-0.489-0.067-0.928,0.278-0.992,0.762c-0.033,0.252-3.577,25.234-23.555,26.134 c-0.488,0.021-0.865,0.434-0.844,0.922C159.687,686.21,160.078,686.579,160.548,686.579z"/></svg>