<svg xmlns="http://www.w3.org/2000/svg" version="1.0" viewBox="0 0 1133.859 1133.858"><path fill="#d6d6d5" d="M651.809,842.434c0,1.789-1.451,3.239-3.239,3.239H326.56c-1.788,0-3.238-1.45-3.238-3.239V643.651 c0-1.788,1.45-3.238,3.238-3.238h322.01c1.788,0,3.239,1.45,3.239,3.238V842.434z"/><path fill="#FFF" d="M465.645,701.417c0,1.789-1.449,3.238-3.239,3.238H348.391c-1.79,0-3.239-1.449-3.239-3.238v-3.24 c0-1.788,1.449-3.239,3.239-3.239h114.015c1.79,0,3.239,1.451,3.239,3.239V701.417z"/><path fill="#FFF" d="M621.487,734.667c0-1.788-1.45-3.239-3.239-3.239H348.391c-1.79,0-3.239,1.451-3.239,3.239v3.238 c0,1.79,1.449,3.239,3.239,3.239h269.857c1.789,0,3.239-1.449,3.239-3.239V734.667z"/><path fill="#FFF" d="M621.487,771.156c0-1.79-1.45-3.239-3.239-3.239H348.391c-1.79,0-3.239,1.449-3.239,3.239v3.239 c0,1.788,1.449,3.239,3.239,3.239h269.857c1.789,0,3.239-1.451,3.239-3.239V771.156z"/><path fill="#FFF" d="M621.487,807.646c0-1.789-1.45-3.238-3.239-3.238H348.391c-1.79,0-3.239,1.449-3.239,3.238v3.239 c0,1.788,1.449,3.238,3.239,3.238h269.857c1.789,0,3.239-1.45,3.239-3.238V807.646z"/><circle cx="583.224" cy="684.249" r="28.18" fill="#FFF"/><path fill="#d6d6d5" d="M595.675,617.187c0,2.153-1.747,3.9-3.9,3.9H204.051c-2.153,0-3.899-1.747-3.899-3.9V377.838 c0-2.153,1.746-3.899,3.899-3.899h387.724c2.153,0,3.9,1.746,3.9,3.899V617.187z"/><path fill="#FFF" d="M371.52,447.392c0,2.153-1.746,3.9-3.901,3.9H230.336c-2.154,0-3.9-1.747-3.9-3.9v-3.901 c0-2.152,1.746-3.898,3.9-3.898h137.283c2.155,0,3.901,1.746,3.901,3.898V447.392z"/><path fill="#FFF" d="M559.166,487.427c0-2.153-1.746-3.899-3.9-3.899H230.336c-2.154,0-3.9,1.746-3.9,3.899v3.901 c0,2.153,1.746,3.899,3.9,3.899h324.929c2.154,0,3.9-1.746,3.9-3.899V487.427z"/><path fill="#FFF" d="M559.166,531.362c0-2.153-1.746-3.899-3.9-3.899H230.336c-2.154,0-3.9,1.746-3.9,3.899v3.901 c0,2.154,1.746,3.899,3.9,3.899h324.929c2.154,0,3.9-1.745,3.9-3.899V531.362z"/><path fill="#FFF" d="M559.166,575.299c0-2.154-1.746-3.899-3.9-3.899H230.336c-2.154,0-3.9,1.745-3.9,3.899v3.9 c0,2.153,1.746,3.9,3.9,3.9h324.929c2.154,0,3.9-1.747,3.9-3.9V575.299z"/><circle cx="513.094" cy="426.721" r="33.93" fill="#FFF"/><path fill="#002464" d="M766.973,350.276c0,2.762-2.239,5-5,5H264.854c-2.761,0-5-2.238-5-5V43.396c0-2.761,2.239-5,5-5h497.119 c2.761,0,5,2.239,5,5V350.276z"/><path fill="#03a3f7" d="M479.572,132.573c0,2.762-2.238,5-5,5H298.555c-2.762,0-5-2.238-5-5v-5.001c0-2.761,2.238-5,5-5h176.018 c2.762,0,5,2.239,5,5V132.573z"/><path fill="#03a3f7" d="M720.162,183.905c0-2.762-2.238-5-5-5H298.555c-2.762,0-5,2.238-5,5v5.001c0,2.761,2.238,5,5,5h416.607 c2.762,0,5-2.239,5-5V183.905z"/><path fill="#03a3f7" d="M720.162,240.237c0-2.762-2.238-5-5-5H298.555c-2.762,0-5,2.238-5,5v5.001c0,2.761,2.238,5,5,5h416.607 c2.762,0,5-2.239,5-5V240.237z"/><path fill="#03a3f7" d="M720.162,296.569c0-2.762-2.238-5-5-5H298.555c-2.762,0-5,2.238-5,5v5.002c0,2.761,2.238,5,5,5h416.607 c2.762,0,5-2.239,5-5V296.569z"/><circle cx="661.091" cy="106.071" r="43.504" fill="#03a3f7"/><path fill="#29f399" d="M195.058,932.171c0,0-40.838,65.757-46.375,76.142c-5.538,10.385-17.305,15.229-32.532,14.538 c-15.231-0.692-24.921-2.077-26.307-4.846c-1.383-2.769,13.847-20.768,20.076-27.688c6.23-6.923,43.608-69.221,46.376-73.374 c2.769-4.152,36.688-27.688,41.533-23.533C202.674,897.562,195.058,932.171,195.058,932.171z"/><path fill="#002464" d="M334.191,901.022c0,0-15.921-20.076-45.684-38.071c-27.278-16.493-25.488-15.546-29.261-21.132 c-0.343-0.51-0.734-1.073-1.195-1.71c-5.537-7.615-35.995-44.995-45.687-45.687c-9.69-0.691-36.687,13.15-42.225,21.457 c-5.537,8.309,10.383,56.066,11.767,68.528c1.385,12.462,3.25,50.359,6.02,67.665c2.768,17.304,0,47.742,34.293,75.987 c23.123,19.046,78.746-84.815,89.821-102.812C323.117,907.252,334.191,901.022,334.191,901.022z"/><path fill="#002464" d="M211.673,799.267c0,0,26.997,1.384,35.302,13.152c8.307,11.77,9.69,33.228,7.615,35.996 C252.514,851.184,211.673,799.267,211.673,799.267z"/><path fill="#29f399" d="M23.726,1008.558c0.11,0.456-2.32,1.861,0,5.68c2.321,3.838,13.335,5.336,19.366,6.159 c6.027,0.802,26.67-0.586,26.561,0.564c-0.111,1.168,1.151,1.408-1.042,3.838c-1.388,10.083,8.767,3.269,8.767,3.269 c11.783-4.493,12.46-10.065,25.613-19.748c13.15-9.698,35.31-42.236,47.076-56.082c6.265-7.36,20.771-28.679,33.394-48.756 c0,0,0,0,0.019-0.02c11.068-17.646,14.665-33.058,15.961-38.558c2.778-11.765-4.531-25.896-4.531-25.896 s-3.01-45.737-24.767-23.123c-10.139,10.542-22.799,32.736-33.998,54.896c-14.046,27.785-25.813,55.498-27.42,59.938 c-2.886,7.965-35.367,56.848-40.352,60.102c-4.989,3.233-34.454,8.221-38.381,8.914c-3.945,0.713-8.587,0.586-9.28,3.252 C20.016,1005.652,23.598,1008.101,23.726,1008.558z"/><path fill="#03a3f7" d="M336.692,1056.711c1.388-0.128,3.434-0.253,6.067-0.382c21.025-1.134,79.245-2.869,139.655-4.478 c27.952-0.749,56.393-1.479,81.804-2.119c50.128-1.261,88.509-2.155,88.509-2.155l25.575-85.257l-130.215-19.399l-18.049-2.687 l-23.455-3.489c0,0-32.608-0.273-68.543,0.842c-8.493,0.274-17.153,0.621-25.628,1.06c-31.768,1.644-60.739,4.713-66.587,10.283 c-7.526,7.199-17.683,38.509-21.118,65.547C321.73,1037.732,323.741,1057.844,336.692,1056.711z"/><path fill="#008bdd" d="M342.759,1056.329c21.025-1.134,79.245-2.869,139.655-4.478c26.709-15.216,58.404-33.504,61.344-37.905 c3.582-5.389-7.032-48.448-13.719-73.712l-23.455-3.489c0,0-32.608-0.273-68.543,0.842c-8.493,0.274-17.153,0.621-25.628,1.06 C381.96,981.337,355.689,1030.716,342.759,1056.329z"/><path fill="#03a3f7" d="M222.225,1028.067c0,0,8.512,18.907,75.5,35.349c66.988,16.44,124.223-69.418,124.223-69.418 s26.177,54.181,38.362,52.977c3.526-0.347,11.764-4.329,21.665-9.81c24.297-13.427,58.714-35.859,58.714-35.859 s-6.74-9.828-16.441-35.935c-16.442-47.497-68.815-111.436-68.815-111.436s-38.362,4.257-121.245,47.079 c-12.02,6.229-22.926,13.316-32.753,20.898C243.47,966.523,222.225,1028.067,222.225,1028.067z"/><path fill="#29f399" d="M719.716,1006.78l-52.652-6.965l-5.984,19.943l56.201,8.302 C717.281,1028.061,723.369,1014.695,719.716,1006.78z"/><polygon fill="#29f399" points="529.729 1062.802 511.279 1019.882 497.767 1028.061 513.747 1068.283"/><path fill="#29f399" d="M205.444,712.052c0,0,36.75,13.143,22.907,49.827c-6.316,12.432-16.678,14.355-16.678,14.355 s6.23,22.341,9.692,25.803c3.46,3.46,11.015,5.539,6.198,11.076c-4.813,5.537-42.423,11.019-44.96-3.361 c-2.078-11.77-11.078-25.021-18.693-29.173c-7.614-4.153-12.46-2.769-16.613-9.69c-4.152-6.922-2.077-9.69,0-16.612 c2.077-6.922-4.794-12.462-2.398-21.46c2.398-8.998,16.934-26.303,20.396-26.303C168.755,706.514,205.444,712.052,205.444,712.052z"/><path fill="#1bd5e9" d="M161.381,756.941c0,0-8.869-4.278-13.054-1.973c-3.943,2.172-3.015,11.58-3.015,11.58 s-17.803-0.304-22.242-19.196c-5.947-25.316,4.847-16.613,9.692-17.997c4.845-1.385,28.619,8.775,28.619,8.775V756.941z"/><path fill="#1bd5e9" d="M140.513,736.273c5.206,1.534,11.709,2.264,18.817,2.011c31.365-1.041,74.442-21.065,69.801-74.681 c-1.261-5.534-3.196-10.194-5.571-14.14c-11.583-19.182-33.852-21.173-43.04-21.173c13.153,60.924-40.007,16.624-59.26,65.07 C121.259,693.361,112.251,727.98,140.513,736.273z"/><path fill="#002464" d="M136.146,870.78c14.195,5.188,47.315,32.701,47.315,32.701s0,0,0.019-0.02 c11.068-17.646,20.66-34.326,21.955-39.825c2.779-11.763,3.373-31.577,3.373-31.577s-16.907-38.789-38.664-16.175 C160.004,826.427,147.344,848.621,136.146,870.78z"/><path fill="#002464" d="M492.056,1116.039c6.703,9.134,13.39,6.085,24.971,7.912c11.564,1.825,57.836,11.579,74.899,10.357 c17.043-1.224,44.445-3.654,55.407-19.491c10.961-15.839,7.91-21.21,5.48-28.865c-0.933-2.924-2.651-3.836-4.625-3.744 c-3.233,0.107-7.123,2.831-9.387,3.744c-3.653,1.461-19.474,2.176-28.607,0c-9.135-2.191-26.964-4.622-37.835-13.754 c-10.885-9.136-21.244-13.228-21.244-13.228c0-0.183,10.359-25.756,0-20.88c-10.338,4.877-14.614,7.91-17.646,7.307 c-3.05-0.603-15.235-7.143-17.062,2.83c-1.827,9.958-9.135,5.865-15.218,0c-6.082-5.881-12.787,0.221-5.48,15.438 c0,12.331-3.4,27.438-3.635,34.363c-0.055,1.642,0.053,2.811,0.44,3.396C494.484,1104.46,485.369,1106.905,492.056,1116.039z"/><path fill="#FFF" d="M492.056,1116.039c6.703,9.134,13.39,6.085,24.971,7.912c11.564,1.825,57.836,11.579,74.899,10.357 c17.043-1.224,44.445-3.654,55.407-19.491c10.961-15.839,7.91-21.21,5.48-28.865c-0.933-2.924-2.651-3.836-4.625-3.744 c-4.603,13.608-13.644,28.715-31.219,31.823c-33.339,5.862-86.899-5.099-99.397-10.579c-5.752-2.518-16.055-4.273-25.499-5.423 c-0.055,1.642,0.053,2.811,0.44,3.396C494.484,1104.46,485.369,1106.905,492.056,1116.039z"/><path fill="#FFF" d="M516.178,1091.089c0,4.906,3.979,8.889,8.889,8.889c4.907,0,8.885-3.982,8.885-8.889 c0-4.909-3.979-8.887-8.885-8.887C520.156,1082.202,516.178,1086.18,516.178,1091.089z"/><path fill="#FFF" d="M587.185,1091.128c0.18,0,0.35-0.115,0.408-0.298c1.265-3.97,7.9-7.813,7.968-7.851 c0.205-0.116,0.276-0.379,0.158-0.585c-0.117-0.206-0.381-0.274-0.584-0.157c-0.286,0.163-6.994,4.045-8.358,8.333 c-0.072,0.226,0.052,0.466,0.278,0.538C587.097,1091.122,587.141,1091.128,587.185,1091.128z"/><path fill="#FFF" d="M576.123,1088.691c0.162,0,0.318-0.094,0.39-0.25c1.872-4.122,8.637-8.711,8.706-8.756 c0.196-0.132,0.25-0.399,0.117-0.595c-0.133-0.197-0.401-0.247-0.595-0.117c-0.286,0.193-7.035,4.771-9.006,9.113 c-0.097,0.215-0.001,0.469,0.213,0.566C576.004,1088.68,576.064,1088.691,576.123,1088.691z"/><path fill="#FFF" d="M565.224,1086.369c0.179,0,0.347-0.112,0.406-0.293c2.253-6.738,10.592-10.729,10.675-10.771 c0.214-0.1,0.306-0.354,0.206-0.568c-0.1-0.214-0.358-0.306-0.57-0.204c-0.356,0.167-8.755,4.189-11.123,11.271 c-0.075,0.225,0.045,0.467,0.271,0.543C565.132,1086.362,565.178,1086.369,565.224,1086.369z"/><path fill="#FFF" d="M556.661,1078.181c0.14,0,0.28-0.071,0.361-0.2c4.506-7.129,12.22-7.803,12.297-7.809 c0.236-0.018,0.413-0.223,0.395-0.459c-0.018-0.237-0.239-0.43-0.46-0.395c-0.333,0.026-8.223,0.718-12.957,8.204 c-0.125,0.202-0.067,0.466,0.134,0.592C556.502,1078.158,556.583,1078.181,556.661,1078.181z"/><path fill="#002464" d="M746.482,1069.422c11.232-1.494,11.767-8.823,18.934-18.105c7.156-9.264,37.936-45.164,45.057-60.717 c7.114-15.538,18.145-40.739,9.517-57.96c-8.627-17.221-14.8-17.124-22.685-18.671c-3.009-0.587-4.634,0.481-5.501,2.257 c-1.46,2.886-0.942,7.607-1.228,10.033c-0.472,3.906-7.444,18.125-13.741,25.091c-6.309,6.96-17.004,21.431-30.235,26.577 c-13.241,5.162-21.805,12.282-21.805,12.282c-0.159-0.088-17.615-21.455-18.313-10.028c-0.689,11.411-0.082,16.616-2.067,18.987 c-1.996,2.386-13.583,9.931-5.715,16.324c7.857,6.385,0.76,10.829-7.307,13.347c-8.081,2.512-5.949,11.322,10.908,12.223 c10.814,5.922,22.433,16.158,28.393,19.693c1.413,0.835,2.492,1.302,3.189,1.246 C737.49,1061.727,735.262,1070.899,746.482,1069.422z"/><path fill="#FFF" d="M746.482,1069.422c11.232-1.494,11.767-8.823,18.934-18.105c7.156-9.264,37.936-45.164,45.057-60.717 c7.114-15.538,18.145-40.739,9.517-57.96c-8.627-17.221-14.8-17.124-22.685-18.671c-3.009-0.587-4.634,0.481-5.501,2.257 c9.724,10.573,18.631,25.76,12.915,42.666c-10.871,32.057-46.209,73.772-57.019,82.1c-4.974,3.838-11.461,12.032-17.005,19.764 c1.413,0.835,2.492,1.302,3.189,1.246C737.49,1061.727,735.262,1070.899,746.482,1069.422z"/><path fill="#FFF" d="M736.184,1036.278c4.303,2.356,9.708,0.779,12.063-3.527c2.36-4.302,0.778-9.704-3.524-12.063 c-4.306-2.358-9.708-0.778-12.065,3.527C730.303,1028.52,731.878,1033.92,736.184,1036.278z"/><path fill="#FFF" d="M769.949,974.24c0.105,0,0.213-0.039,0.295-0.117c0.172-0.164,0.179-0.435,0.015-0.606 c-2.875-3.018-3.056-10.683-3.058-10.759c-0.004-0.233-0.196-0.42-0.428-0.42c-0.001,0-0.005,0-0.008,0 c-0.236,0.005-0.423,0.199-0.42,0.437c0.007,0.327,0.19,8.074,3.293,11.333C769.724,974.196,769.835,974.24,769.949,974.24z"/><path fill="#FFF" d="M762.499,982.771c0.09,0,0.181-0.027,0.257-0.085c0.189-0.143,0.228-0.411,0.086-0.601 c-2.717-3.625-3.491-11.76-3.499-11.842c-0.022-0.235-0.241-0.406-0.465-0.387c-0.236,0.021-0.41,0.229-0.388,0.466 c0.032,0.343,0.806,8.459,3.665,12.277C762.241,982.712,762.37,982.771,762.499,982.771z"/><path fill="#FFF" d="M755.227,991.215c0.105,0,0.209-0.037,0.291-0.114c0.173-0.161,0.184-0.432,0.023-0.605 c-4.829-5.21-4.325-14.44-4.321-14.534c0.016-0.235-0.165-0.438-0.401-0.452c-0.233-0.017-0.438,0.165-0.453,0.4 c-0.024,0.394-0.529,9.691,4.545,15.168C754.998,991.169,755.113,991.215,755.227,991.215z"/><path fill="#FFF" d="M743.931,994.791c0.07,0,0.143-0.017,0.208-0.054c0.208-0.114,0.283-0.375,0.167-0.582 c-4.08-7.357-0.974-14.463-0.942-14.534c0.097-0.216,0-0.469-0.216-0.566c-0.214-0.095-0.466,0-0.565,0.214 c-0.137,0.307-3.319,7.558,0.973,15.303C743.635,994.712,743.781,994.791,743.931,994.791z"/><path fill="#008bdd" d="M222.225,1028.067c0,0,8.512,18.907,75.5,35.349c66.988,16.44,124.223-69.418,124.223-69.418 s26.177,54.181,38.362,52.977c3.526-0.347,11.764-4.329,21.665-9.81c-11.453-19.748-37.943-71.502-45.451-74.406 c-8.787-3.396-30.793,6.709-44.002,28.027c-13.209,21.339-103.857,59.88-113.539,32.129c-6.963-19.912,11.47-72.742,22.451-101.002 C243.47,966.523,222.225,1028.067,222.225,1028.067z"/><path fill="#00a3b7" d="M150.579,734.813c1.771,1.333,4.767,2.594,8.75,3.471c31.365-1.041,74.442-21.065,69.801-74.681 c-1.261-5.534-3.196-10.194-5.571-14.14c3.999,21.026-1.334,44.463-1.334,44.463s-7.179-36.041-5.809-14.082 c1.388,21.958-20.094,31.401-31.185,26.671c-11.088-4.731-31.876-13.28-40.848-2.888 C135.417,714.022,142.267,728.583,150.579,734.813z"/><path fill="#002464" d="M222.227,744.122c0.162,0,0.326-0.046,0.472-0.143c1.872-1.242,2.853-2.691,2.842-4.193 c-0.01-1.494-0.97-2.864-2.852-4.073c-3.3-2.121-7.778-11.235-7.824-11.327c-0.208-0.426-0.722-0.601-1.144-0.394 c-0.427,0.207-0.603,0.72-0.396,1.145c0.193,0.394,4.737,9.638,8.437,12.017c0.938,0.603,2.059,1.552,2.065,2.646 c0.007,0.883-0.731,1.86-2.076,2.754c-0.394,0.261-0.502,0.793-0.239,1.187C221.676,743.987,221.949,744.122,222.227,744.122z"/><path fill="#002464" d="M159.158,769.168c0.047,0,0.094-0.003,0.143-0.011c0.466-0.078,0.781-0.52,0.704-0.986 c-1.546-9.271-9.437-8.116-9.521-8.104c-0.467,0.075-0.785,0.515-0.709,0.981c0.074,0.465,0.505,0.784,0.977,0.711l0,0 c0.259-0.039,6.301-0.869,7.564,6.693C158.384,768.872,158.748,769.168,159.158,769.168z"/><path fill="#002464" d="M199.356,780.039c18,0,28.039-14.788,28.166-14.979c0.261-0.394,0.152-0.925-0.24-1.186 c-0.395-0.264-0.927-0.154-1.188,0.241c-0.63,0.951-15.761,23.153-42.941,10.258c-0.428-0.203-0.938-0.021-1.141,0.406 c-0.202,0.428-0.02,0.938,0.406,1.141C188.657,778.881,194.32,780.039,199.356,780.039z"/><path fill="#002464" d="M90.815,1019.878c0.212,0,0.427-0.078,0.592-0.237c0.216-0.206,0.589-0.56,1.097-1.038 c16.271-15.363,28.087-27.513,35.118-36.115c11.489-14.054,56.09-77.873,56.54-78.517c0.271-0.387,0.176-0.922-0.212-1.191 c-0.388-0.271-0.921-0.176-1.19,0.212c-0.45,0.642-45.014,64.408-56.464,78.412c-6.984,8.545-18.75,20.642-34.967,35.953 c-0.514,0.483-0.888,0.84-1.106,1.047c-0.343,0.326-0.354,0.868-0.026,1.211C90.364,1019.79,90.59,1019.878,90.815,1019.878z"/><path fill="#002464" d="M23.724,1009.414c0.018,0,0.036-0.002,0.055-0.002c0.195-0.013,19.806-1.277,34.338-5.364 c0.458-0.128,0.721-0.602,0.595-1.057c-0.129-0.455-0.606-0.719-1.057-0.593c-14.36,4.039-33.789,5.291-33.982,5.304 c-0.472,0.03-0.832,0.438-0.801,0.909C22.899,1009.065,23.276,1009.414,23.724,1009.414z"/><path fill="#002464" d="M32.426,1000.165c0.018,0,0.036,0,0.056-0.002c0.837-0.053,20.574-1.314,25.616-2.598 c0.458-0.115,0.736-0.582,0.619-1.04c-0.115-0.459-0.583-0.738-1.04-0.618c-4.89,1.242-25.1,2.534-25.304,2.547 c-0.472,0.03-0.831,0.437-0.801,0.908C31.6,999.815,31.978,1000.165,32.426,1000.165z"/><path fill="#002464" d="M263.859,1011.387c0.151,0,0.304-0.04,0.443-0.125c21.283-12.954,13.959-48.677,13.637-50.19 c-0.099-0.462-0.548-0.757-1.015-0.659c-0.463,0.099-0.757,0.554-0.66,1.016c0.076,0.358,7.393,36.049-12.852,48.37 c-0.405,0.247-0.532,0.772-0.286,1.177C263.286,1011.239,263.569,1011.387,263.859,1011.387z"/><path fill="#002464" d="M485.172,1031.218c-0.418-0.092-0.698-0.475-0.671-0.89c-0.428-2.125-11.954-19.86-22.127-35.521 c-6.331-9.745-12.879-19.822-17.477-27.211c-7.153-11.496-13.869-25.601-17.235-36.583c-12.435,5.692-99.656,58.637-124.808,86.483 c-10.705,11.853-25.153,15.09-41.788,9.361c-12.453-4.288-21.874-12.188-21.968-12.267c-0.361-0.307-0.406-0.846-0.102-1.207 c0.306-0.36,0.846-0.405,1.208-0.102c0.364,0.308,36.646,30.449,61.378,3.066c24.074-26.655,111.816-81.087,125.587-87.001 c-1.684-5.947-2.277-10.828-1.271-13.646c0.495-1.39,1.352-2.3,2.549-2.707c2.266-0.772,3.707-0.018,4.52,0.75 c2.285,2.163,2.288,6.846,1.325,10.28c-0.967,3.447-2.795,5.761-5.049,6.42c3.338,10.804,10.1,24.985,17.106,36.245 c4.589,7.375,11.131,17.444,17.458,27.184c17.628,27.129,22.704,35.236,22.382,36.692c-0.088,0.398-0.441,0.671-0.834,0.671 C485.296,1031.238,485.234,1031.231,485.172,1031.218z M429.001,914.617c-0.686,0.233-1.173,0.777-1.489,1.661 c-0.9,2.523-0.329,7.007,1.244,12.526c1.654-0.482,3.096-2.419,3.889-5.241c0.979-3.498,0.613-7.184-0.855-8.573 c-0.424-0.404-0.936-0.605-1.543-0.605C429.871,914.385,429.456,914.462,429.001,914.617z"/><path fill="#002464" d="M655.134,1026.457c0.252,0,0.502-0.109,0.671-0.322c0.294-0.369,0.233-0.908-0.136-1.203 c-1.036-0.827-15.982-1.297-69.529-2.187c-16.156-0.269-30.108-0.501-31.728-0.682c-0.472-0.053-0.893,0.286-0.946,0.756 c-0.052,0.47,0.286,0.894,0.756,0.946c1.699,0.19,15.022,0.411,31.89,0.691c26.296,0.437,65.975,1.096,68.609,1.894 C654.85,1026.423,654.994,1026.457,655.134,1026.457z"/><path fill="#002464" d="M452.531,1033.728c0.167,0,0.336-0.051,0.485-0.152c0.39-0.27,0.487-0.802,0.219-1.191l-2.606-3.774 c-1.865-2.703-3.855-5.589-5.748-8.325c-0.27-0.389-0.803-0.485-1.192-0.217c-0.388,0.27-0.485,0.804-0.216,1.192 c1.892,2.734,3.884,5.62,5.747,8.322l2.606,3.775C451.99,1033.599,452.258,1033.728,452.531,1033.728z"/><path fill="#002464" d="M435.577,1009.414c0.186,0,0.371-0.061,0.529-0.185c0.371-0.293,0.435-0.832,0.142-1.202 c-0.417-0.529-1.144-2.489-1.915-4.563c-0.9-2.423-2.018-5.439-3.353-8.216c-0.204-0.425-0.716-0.606-1.142-0.401 c-0.427,0.206-0.606,0.718-0.402,1.144c1.299,2.703,2.405,5.679,3.292,8.069c1.017,2.738,1.619,4.321,2.176,5.028 C435.072,1009.302,435.323,1009.414,435.577,1009.414z"/><path fill="#002464" d="M392,1016.734c0.19,0,0.384-0.063,0.543-0.195c10.809-8.938,19.688-17.904,25.002-25.251 c1.126-1.356,2.262-2.278,3.342-2.698c0.442-0.172,0.659-0.668,0.488-1.107c-0.17-0.442-0.668-0.661-1.106-0.489 c-1.356,0.525-2.728,1.619-4.078,3.247c-5.265,7.277-14.038,16.132-24.739,24.979c-0.364,0.301-0.417,0.841-0.113,1.205 C391.508,1016.628,391.752,1016.734,392,1016.734z"/><path fill="#002464" d="M353.569,1042.855c0.139,0,0.277-0.033,0.408-0.104c10.284-5.585,21.036-12.596,31.094-20.277 c0.376-0.287,0.449-0.824,0.161-1.2c-0.287-0.375-0.824-0.447-1.201-0.161c-9.987,7.628-20.663,14.591-30.871,20.134 c-0.415,0.225-0.568,0.745-0.343,1.161C352.972,1042.693,353.266,1042.855,353.569,1042.855z"/><path fill="#002464" d="M319.713,1056.323c0.06,0,0.121-0.006,0.183-0.019c6.896-1.5,14.539-4.147,22.718-7.87 c0.432-0.196,0.62-0.703,0.425-1.134c-0.196-0.431-0.706-0.622-1.134-0.426c-8.067,3.672-15.595,6.281-22.374,7.755 c-0.461,0.101-0.753,0.557-0.653,1.02C318.964,1056.05,319.318,1056.323,319.713,1056.323z"/><path fill="#002464" d="M294.809,1056.793c0.415,0,0.78-0.304,0.845-0.727c0.072-0.467-0.247-0.904-0.716-0.977 c-4.962-0.766-10.28-1.998-15.808-3.663c-0.453-0.14-0.93,0.121-1.067,0.573c-0.137,0.452,0.121,0.93,0.574,1.065 c5.603,1.69,11,2.94,16.041,3.717C294.722,1056.789,294.766,1056.793,294.809,1056.793z"/><path fill="#002464" d="M255.644,1044.178c0.325,0,0.634-0.185,0.779-0.499c0.197-0.43,0.009-0.938-0.421-1.136 c-3.121-1.433-6.308-2.989-9.476-4.624c-0.42-0.217-0.937-0.053-1.154,0.367c-0.217,0.421-0.052,0.938,0.368,1.154 c3.191,1.648,6.402,3.216,9.548,4.659C255.403,1044.153,255.523,1044.178,255.644,1044.178z"/><path fill="#002464" d="M461.152,1038.229c0.188,0,0.376-0.062,0.533-0.188c0.37-0.296,0.431-0.835,0.134-1.204 c-0.796-0.997-2.388-3.642-4.731-7.862c-0.229-0.413-0.75-0.563-1.164-0.333c-0.413,0.229-0.564,0.75-0.333,1.164 c2.421,4.364,4.022,7.015,4.89,8.101C460.65,1038.118,460.9,1038.229,461.152,1038.229z"/><path fill="#002464" d="M452.452,1023.092c0.136,0,0.274-0.031,0.403-0.101c0.416-0.224,0.574-0.742,0.351-1.159 c-1.672-3.122-3.55-6.679-5.742-10.874c-0.219-0.42-0.737-0.581-1.156-0.363c-0.418,0.22-0.58,0.737-0.363,1.155 c2.194,4.201,4.076,7.762,5.75,10.89C451.85,1022.929,452.146,1023.092,452.452,1023.092z"/><path fill="#002464" d="M443.406,1005.87c0.132,0,0.268-0.03,0.393-0.096c0.42-0.218,0.583-0.735,0.366-1.155l-4.887-9.422 c-0.217-0.422-0.735-0.585-1.154-0.367c-0.419,0.218-0.584,0.735-0.366,1.154l4.887,9.425 C442.797,1005.702,443.097,1005.87,443.406,1005.87z"/><path fill="#002464" d="M280.458,1048.695c0.376,0,0.722-0.25,0.826-0.632c0.124-0.456-0.145-0.927-0.602-1.05 c-3.646-0.99-7.355-2.243-11.022-3.725c-0.435-0.174-0.937,0.034-1.116,0.475c-0.176,0.438,0.035,0.937,0.475,1.114 c3.731,1.506,7.504,2.78,11.216,3.787C280.309,1048.687,280.384,1048.695,280.458,1048.695z"/><path fill="#002464" d="M302.981,1051.781c1.128,0,2.254-0.022,3.375-0.071c0.473-0.02,0.839-0.418,0.819-0.891 c-0.018-0.473-0.418-0.83-0.891-0.819c-5.569,0.234-11.261-0.128-16.919-1.075c-0.463-0.084-0.908,0.236-0.987,0.703 c-0.077,0.466,0.237,0.907,0.704,0.986C293.719,1051.39,298.38,1051.781,302.981,1051.781z"/><path fill="#002464" d="M314.079,1051.002c0.04,0,0.08-0.003,0.122-0.009c6.107-0.867,12.087-2.447,17.768-4.697 c0.44-0.174,0.656-0.672,0.482-1.111c-0.175-0.44-0.673-0.654-1.112-0.481c-5.557,2.2-11.405,3.746-17.379,4.595 c-0.468,0.066-0.794,0.499-0.727,0.967C313.293,1050.692,313.659,1051.002,314.079,1051.002z"/><path fill="#002464" d="M338.465,1043.255c0.132,0,0.268-0.03,0.393-0.095c5.242-2.727,8.084-5.028,8.204-5.125 c0.366-0.299,0.422-0.838,0.122-1.204c-0.298-0.366-0.838-0.421-1.205-0.123c-0.028,0.022-2.841,2.296-7.91,4.931 c-0.42,0.219-0.583,0.736-0.365,1.155C337.856,1043.087,338.155,1043.255,338.465,1043.255z"/><path fill="#002464" d="M581.697,1011.953c0.456,0,0.834-0.359,0.854-0.82c0.019-0.473-0.348-0.871-0.821-0.891 c-6.763-0.279-11.046-0.476-12.386-0.567c-0.465-0.02-0.88,0.326-0.912,0.797c-0.032,0.472,0.325,0.88,0.796,0.913 c1.711,0.116,7.705,0.373,12.432,0.568C581.672,1011.953,581.684,1011.953,581.697,1011.953z"/><path fill="#002464" d="M600.92,1012.726c0.457,0,0.836-0.362,0.854-0.822c0.018-0.473-0.35-0.871-0.823-0.889 c-4.701-0.184-9.214-0.364-13.295-0.53c-0.501-0.041-0.871,0.349-0.889,0.82c-0.02,0.474,0.348,0.872,0.82,0.892 c4.083,0.165,8.596,0.346,13.297,0.529C600.897,1012.726,600.909,1012.726,600.92,1012.726z"/><path fill="#002464" d="M624.667,1013.642c0.458,0,0.837-0.362,0.854-0.824c0.019-0.472-0.349-0.87-0.822-0.888 c-5.621-0.214-11.559-0.442-17.38-0.668c-0.466-0.022-0.87,0.351-0.888,0.822c-0.018,0.474,0.35,0.871,0.821,0.89 c5.823,0.225,11.761,0.453,17.382,0.668C624.646,1013.642,624.657,1013.642,624.667,1013.642z"/><path fill="#002464" d="M643.824,1014.369c0.458,0,0.838-0.362,0.854-0.823c0.018-0.474-0.35-0.871-0.823-0.889l-12.314-0.466 c-0.45-0.042-0.869,0.351-0.888,0.823c-0.018,0.472,0.352,0.871,0.823,0.888l12.314,0.466 C643.802,1014.369,643.813,1014.369,643.824,1014.369z"/><path fill="#002464" d="M655.134,1014.794c0.219,0,0.43-0.084,0.588-0.234c0.167-0.157,0.265-0.376,0.269-0.606 c0.007-0.383-0.169-0.848-1.058-0.881l-5.117-0.19c-0.459-0.035-0.872,0.352-0.889,0.824c-0.017,0.472,0.352,0.869,0.825,0.888 l5.35,0.2C655.112,1014.794,655.125,1014.794,655.134,1014.794z"/><path fill="#002464" d="M623.739,1030.068c0.455,0,0.834-0.359,0.854-0.819c0.02-0.473-0.347-0.873-0.819-0.893 c-5.68-0.243-15.703-0.661-19.029-0.728c-0.505-0.019-0.864,0.365-0.875,0.838c-0.008,0.474,0.367,0.864,0.84,0.874 c2.454,0.05,9.197,0.308,18.991,0.727C623.714,1030.068,623.726,1030.068,623.739,1030.068z"/><path fill="#002464" d="M638.366,1030.709c0.456,0,0.834-0.358,0.855-0.818c0.021-0.473-0.345-0.873-0.818-0.894l-8.702-0.385 c-0.513-0.01-0.873,0.348-0.893,0.819c-0.02,0.472,0.347,0.872,0.818,0.893l8.702,0.384 C638.341,1030.709,638.353,1030.709,638.366,1030.709z"/><path fill="#002464" d="M650.048,1031.216c0.542,0,0.606-0.06,0.768-0.215l-0.592-0.619l0.02-0.856 c-0.074-0.001-0.744-0.032-1.874-0.083l-4.955-0.223c-0.453-0.036-0.871,0.345-0.893,0.816c-0.021,0.473,0.345,0.874,0.817,0.895 l4.952,0.222C649.167,1031.192,649.704,1031.216,650.048,1031.216z"/><path fill="#d6d6d5" d="M1060.412,276.884h14.167v-14.168c0-1.819,1.477-3.292,3.293-3.292c1.819,0,3.295,1.473,3.295,3.292v14.168 h14.167c1.816,0,3.292,1.476,3.292,3.293c0,1.818-1.476,3.294-3.292,3.294h-14.167v14.17c0,1.817-1.476,3.292-3.295,3.292 c-1.816,0-3.293-1.475-3.293-3.292v-14.17h-14.167c-1.818,0-3.293-1.476-3.293-3.294 C1057.118,278.359,1058.593,276.884,1060.412,276.884z"/><path fill="#d6d6d5" d="M885.364,223.3v-14.166h-14.167c-1.819,0-3.292-1.477-3.292-3.294s1.473-3.295,3.292-3.295h14.167v-14.166 c0-1.817,1.476-3.293,3.294-3.293s3.293,1.476,3.293,3.293v14.166h14.169c1.818,0,3.292,1.478,3.292,3.295 s-1.474,3.294-3.292,3.294h-14.169V223.3c0,1.818-1.475,3.295-3.293,3.295S885.364,225.118,885.364,223.3z"/><path fill="#d6d6d5" d="M834.358,169.949v-6.479h-6.48c-0.832,0-1.505-0.677-1.505-1.507c0-0.832,0.673-1.508,1.505-1.508h6.48 v-6.479c0-0.83,0.675-1.505,1.507-1.505s1.507,0.675,1.507,1.505v6.479h6.479c0.833,0,1.507,0.676,1.507,1.508 c0,0.83-0.674,1.507-1.507,1.507h-6.479v6.479c0,0.831-0.675,1.507-1.507,1.507S834.358,170.78,834.358,169.949z"/><path fill="#d6d6d5" d="M865.501,261.609v-6.48h-6.48c-0.831,0-1.505-0.675-1.505-1.507c0-0.831,0.674-1.506,1.505-1.506h6.48 v-6.48c0-0.83,0.676-1.507,1.507-1.507c0.832,0,1.508,0.677,1.508,1.507v6.48h6.48c0.832,0,1.505,0.675,1.505,1.506 c0,0.832-0.673,1.507-1.505,1.507h-6.48v6.48c0,0.832-0.676,1.507-1.508,1.507C866.177,263.116,865.501,262.441,865.501,261.609z"/><path fill="#d6d6d5" d="M944.422,179.443v-6.479h-6.479c-0.832,0-1.507-0.676-1.507-1.508c0-0.831,0.675-1.506,1.507-1.506h6.479 v-6.48c0-0.83,0.677-1.507,1.507-1.507c0.832,0,1.508,0.677,1.508,1.507v6.48h6.479c0.833,0,1.506,0.675,1.506,1.506 c0,0.832-0.674,1.508-1.506,1.508h-6.479v6.479c0,0.832-0.676,1.507-1.508,1.507C945.099,180.95,944.422,180.275,944.422,179.443z"/><path fill="#002464" d="M886.811,324.184c0-10.558,8.588-19.146,19.146-19.146c10.557,0,19.146,8.588,19.146,19.146 c0,10.559-8.59,19.147-19.146,19.147C895.398,343.331,886.811,334.742,886.811,324.184z M888.455,324.184 c0,9.652,7.851,17.502,17.501,17.502c9.65,0,17.5-7.85,17.5-17.502c0-9.649-7.85-17.499-17.5-17.499 C896.306,306.685,888.455,314.534,888.455,324.184z"/><path fill="#03a3f7" d="M1094.175,603.673l-24.776-17.275l-87.288,80.328l28.338,19.761l17.481,12.19 c6.951,4.854,16.518,3.143,21.364-3.809l48.69-69.832C1102.837,618.085,1101.126,608.518,1094.175,603.673z"/><path fill="#03a3f7" d="M982.027,666.669l87.371-80.271c0,0-41.995,16.962-48,25.387c-6.005,8.431-21.019,13.088-30.527,22.096 C981.362,642.887,982.027,666.669,982.027,666.669z"/><path fill="#002464" d="M942.459,933.683c16.798,34.639,33.499,69.314,35.661,76.338c3.291,10.695,2.468,32.905,4.937,41.131 c2.467,8.227,39.485,27.971,70.744,15.631c31.26-12.34,36.195-21.389,16.453-49.357c-19.743-27.97-22.211-21.389-19.743-27.97 c1.341-3.587,0.979-33.267-2.155-70.588C1021.448,929.849,979.552,942.345,942.459,933.683z"/><path fill="#1bd5e9" d="M845.465,662.119c14.034,81.455,36.994,168.777,72.604,221.219c2.822,5.882,5.997,12.454,9.386,19.43 c2.854,5.907,5.865,12.092,8.926,18.402c0.009,0,0.009,0,0.009,0.009c1.999,4.138,4.039,8.317,6.069,12.504 c37.093,8.662,78.989-3.834,105.897-14.815c-2.616-31.218-7.183-67.775-14.297-98.871c-9.436-41.204-18.271-95.9-23.61-133.51 l-28.338-19.761c0.024,0.174,0.04,0.265,0.04,0.265l9.132,6.579c0,0-2.468,6.583-14.807,7.816 c-6.745,1.454-15.112-3.553-23.256-11.164c-29.3,2.708-62.691,2.897-92.708-3.956C855.385,665.097,850.36,663.724,845.465,662.119z"/><path fill="#002464" d="M826.488,468.739c-0.879,16.099,1.644,68.449,9.854,132.475c0,0-3.726,22.21-8.76,53.658 c5.691,2.814,11.681,5.216,17.883,7.24v0.007c4.896,1.604,9.92,2.978,15.046,4.146c30.018,6.854,63.408,6.664,92.708,3.956 c-16.164-15.095-31.482-40.406-31.597-45.67l-24.792-17.283c-6.952-4.847-8.655-14.413-3.809-21.364l48.691-69.831 c4.853-6.952,14.411-8.654,21.363-3.81l42.875,29.895c22.177,2.344,49.801,22.859,62.913,33.784 c-4.927-39.79-39.517-116.294-46.32-126.123c-4.879-7.041-27.221-17.653-44.265-25.486h-0.009 c-9.871,18.798-38.654,64.247-86.688,73.156c-22.803-33.907-5.627-93.334,0.437-109.548 c-20.929-12.495-55.157-34.501-92.668-50.715c-10.143,22.606-22.557,53.668-27.73,80.172 C798.592,436.155,821.239,455.018,826.488,468.739z"/><path fill="#002464" d="M887.633,316.555l12.051,6.852c0,0,0,0,0.008,0.009c17.44,4.483,48.091,17.473,47.169,21.595 c-1.135,5.066-0.412,13.439,3.776,11.672c4.188-1.762,14.107-1.103,14.107,10.144c0,11.236-17.883,6.49-17.883,6.49 c0.312,4.385,3.134,8.407,6.499,11.714c0.049-0.65,0.083-1.02,0.083-1.02s26.062-6.605,31.005-33.456 c5.091,2.787,10.923,4.366,17.135,4.366c19.768,0,35.783-16.015,35.783-35.782c0-19.76-16.016-35.783-35.783-35.783 c-14.199,0-26.464,8.267-32.248,20.252c-12.174-10.217-33.941-22.622-59.491-10.907 C891.745,304.216,887.633,316.555,887.633,316.555z"/><path fill="#29f399" d="M982.11,667.547L982.11,667.547c0.455,0,0.823-0.366,0.823-0.821c0-0.09-0.024-0.244-0.052-0.33 c-0.146-0.428-0.613-0.66-1.044-0.514c-0.39,0.132-0.615,0.527-0.546,0.921C981.331,667.22,981.684,667.547,982.11,667.547z"/><path fill="#03a3f7" d="M898.259,607.204l24.794,17.283c-0.017-0.33,0.033-0.585,0.148-0.75 c2.879-4.112,41.954-71.155,71.568-80.614c3.875-1.235,8.127-1.508,12.61-1.03L964.505,512.2 c-6.95-4.847-16.509-3.144-21.362,3.809l-48.691,69.832C889.606,592.791,891.31,602.358,898.259,607.204z"/><path fill="#002464" d="M865.43,1070.738c41.945-3.134,73.206-17.941,78.963-43.443c4.385-19.422-5.066-72.728-8.003-106.116 c0-0.009,0-0.009-0.009-0.009c-3.061-6.311-6.071-12.495-8.926-18.402c-21.207,14.116-57.558,35.308-89.566,39.189 c14.602,27.171,27.912,51.308,27.534,58.192c-0.823,14.808-24.679,40.309-37.84,46.891 C814.42,1053.62,823.485,1073.865,865.43,1070.738z"/><path fill="#1bd5e9" d="M801.257,857.838c1.325,17.604,19.834,52.867,36.631,84.119c30.28-3.676,64.46-22.845,86.013-36.853 c1.226-0.798,2.411-1.58,3.554-2.337c-3.389-6.976-6.564-13.548-9.386-19.43c-35.611-52.441-58.57-139.764-72.604-221.219v-0.007 c-6.202-2.024-12.191-4.426-17.883-7.24c-2.386,14.899-5.06,31.868-7.766,49.539C810.101,767.827,799.941,840.209,801.257,857.838z"/><path fill="#29f399" d="M891.581,497.489c48.033-8.909,76.816-54.358,86.688-73.156c-8.843-4.063-16.255-7.378-19.068-9.064 c-7.254-4.352-6.194-25.337-5.841-30.239c-3.365-3.307-6.187-7.329-6.499-11.714c0,0,17.883,4.746,17.883-6.49 c0-11.246-9.92-11.905-14.107-10.144c-4.188,1.768-4.911-6.605-3.776-11.672c0.922-4.122-29.729-17.111-47.169-21.595l1.925,1.094 c0,0-3.291,8.771-8.227,10.966c-4.936,2.196,4.113,7.676,4.113,7.676s-8.498,17.554,8.498,32.904 c6.581,8.227,10.423,12.067,7.132,20.846c-0.945,2.507-8.686-1.547-21.116-8.959C885.954,404.155,868.778,463.582,891.581,497.489z"/><path fill="#29f399" d="M642.221,333.279c-2.747,1.646-19.743,8.776-19.743,13.712s28.513-7.132,37.841,1.095 c5.89,5.199,64.987,37.107,111.3,69.313c5.174-26.504,17.588-57.565,27.73-80.172c-17.983-7.781-36.822-13.771-55.124-17.652 c-65.382-13.868-67.454-18.098-67.454-18.098s-11.209-31.566-13.714-41.132c-1.907-7.283-10.423,9.872-6.581,19.192 c3.842,9.319-13.162-11.969-23.033-21.891c-9.871-9.921-9.319-1.693-6.029,5.438s10.992,20.886,10.992,20.886 s-36.64-32.044-39.931-28.053c-3.291,3.99,11.095,20.88,20.836,32.397c2.437,2.879,8.211,10.121,6.964,10.313 c-4.532,0.697-17.438-6.317-17.438-6.317s-23.149-12.873-23.657-5.099c-0.299,4.592,22.491,22.489,46.619,32.361 C655.927,329.445,644.96,331.634,642.221,333.279z"/><path fill="#29f399" d="M921.623,624.552c0.115,5.264,15.433,30.575,31.597,45.67c8.144,7.611,16.511,12.618,23.256,11.164 c12.339-1.233,14.807-7.816,14.807-7.816l-9.132-6.579c0,0-0.016-0.091-0.04-0.265l-0.083-0.057c0.026,0,0.05-0.01,0.075-0.01 c-0.238-2.194,23.123-23.368,23.165-23.525c7.634-1.234,62.338-21.907,64.132-56.736c0.016-0.278,0.024-0.56,0.033-0.848 c0.065-2.87-0.14-6.096-0.569-9.607c-13.111-10.925-40.735-31.44-62.913-33.784c-4.484-0.478-8.736-0.206-12.611,1.026 c-29.614,9.461-68.688,76.505-71.568,80.617C921.656,623.968,921.606,624.222,921.623,624.552z"/><path fill="#29f399" d="M900.896,569.154c1.583,1.118,3.772,0.741,4.889-0.84l25.451-35.988c1.119-1.582,0.744-3.771-0.838-4.89 l0,0c-1.582-1.117-3.769-0.741-4.888,0.84l-25.451,35.99C898.941,565.847,899.316,568.036,900.896,569.154L900.896,569.154z"/><path fill="#00a3b7" d="M819.816,704.411c12.981,32.484,29.911,78.411,44.479,108.182c16.395,33.489,43.73,71.526,59.606,92.512 c1.226-0.798,2.411-1.58,3.554-2.337c-3.389-6.976-6.564-13.548-9.386-19.43c-35.611-52.441-58.57-139.764-72.604-221.219v-0.007 c-6.202-2.024-12.191-4.426-17.883-7.24C825.196,669.771,822.522,686.74,819.816,704.411z"/><path fill="#FFF" d="M1037.365,905.927c0.107,0,0.214-0.021,0.317-0.064c0.42-0.175,0.617-0.656,0.441-1.076l-22.116-52.759 c0.741-2.662,5.879-22.883-3.039-41.437c-9.317-19.38-16.545-108.321-16.618-109.218c-0.036-0.455-0.429-0.79-0.886-0.755 c-0.452,0.038-0.791,0.434-0.753,0.887c0.293,3.672,7.326,90.146,16.774,109.799c9.236,19.211,2.931,40.323,2.866,40.534 c-0.056,0.183-0.047,0.381,0.027,0.558l22.228,53.027C1036.739,905.737,1037.044,905.927,1037.365,905.927z"/><path fill="#FFF" d="M891.693,903.591c0.176,0,0.353-0.057,0.503-0.172c0.359-0.279,0.425-0.795,0.146-1.154 c-11.233-14.499-17.823-82.482-17.887-83.169c-0.043-0.452-0.446-0.8-0.897-0.741c-0.453,0.043-0.785,0.445-0.742,0.898 c0.269,2.814,6.703,69.146,18.226,84.019C891.205,903.482,891.447,903.591,891.693,903.591z"/><path fill="#FFF" d="M1041.427,968.068c0.066,0,0.131-0.009,0.198-0.024c0.441-0.109,0.711-0.556,0.602-0.996l-4.011-16.24 l4.004-14.004c0.125-0.437-0.129-0.892-0.566-1.017c-0.437-0.119-0.892,0.13-1.017,0.565l-4.063,14.214 c-0.039,0.137-0.042,0.284-0.007,0.422l4.063,16.453C1040.722,967.817,1041.058,968.068,1041.427,968.068z"/><path fill="#FFF" d="M921.619,968.068c0.258,0,0.511-0.122,0.672-0.348l5.835-8.227c0.252-0.354,0.184-0.847-0.156-1.117 l-27.262-21.818l20.066-17.065c0.345-0.294,0.388-0.813,0.093-1.158c-0.293-0.348-0.813-0.39-1.159-0.094l-20.827,17.711 c-0.186,0.159-0.292,0.394-0.288,0.639c0.002,0.246,0.117,0.477,0.309,0.629l27.434,21.957l-5.386,7.592 c-0.264,0.371-0.175,0.885,0.194,1.146C921.288,968.019,921.455,968.068,921.619,968.068z"/><path fill="#FFF" d="M1030.817,1060.456c3.699,0,6.25-0.224,6.625-0.259c0.452-0.044,0.785-0.443,0.742-0.896 s-0.438-0.788-0.896-0.742c-0.344,0.031-34.565,3.022-40.985-14.274c-0.158-0.426-0.632-0.646-1.058-0.486 c-0.426,0.159-0.642,0.632-0.485,1.06C999.854,1058.582,1020.129,1060.456,1030.817,1060.456z"/><path fill="#FFF" d="M869.764,1055.227c21.758,0,36.232-6.172,45.203-12.236c13.044-8.819,17.488-19.055,17.671-19.485 c0.177-0.419-0.019-0.901-0.437-1.077c-0.417-0.181-0.899,0.017-1.078,0.434c-0.043,0.102-4.484,10.284-17.169,18.826 c-11.723,7.895-33.096,15.97-68.343,9.595c-0.446-0.082-0.875,0.216-0.955,0.663c-0.083,0.446,0.214,0.876,0.662,0.956 C854.333,1054.53,862.459,1055.227,869.764,1055.227z"/><path fill="#FFF" d="M980.329,300.348c0.133,0,0.268-0.033,0.392-0.101c23.875-12.938,41.838-2.38,42.018-2.273 c0.387,0.238,0.894,0.112,1.13-0.277c0.234-0.388,0.113-0.893-0.276-1.128c-0.187-0.115-18.914-11.177-43.655,2.233 c-0.399,0.217-0.548,0.715-0.331,1.115C979.755,300.191,980.038,300.348,980.329,300.348z"/><path fill="#FFF" d="M986.904,305.232c0.182,0,0.363-0.06,0.517-0.182c7.312-5.887,19.32-3.8,19.44-3.776 c0.446,0.081,0.874-0.217,0.955-0.663c0.082-0.448-0.214-0.875-0.661-0.955c-0.521-0.096-12.861-2.25-20.766,4.113 c-0.354,0.285-0.411,0.803-0.126,1.156C986.426,305.128,986.664,305.232,986.904,305.232z"/><path fill="#FFF" d="M1001.738,348.294c22.977,0,29.851-24.396,29.924-24.664c0.118-0.439-0.142-0.891-0.58-1.009 c-0.439-0.117-0.891,0.142-1.009,0.579c-0.307,1.136-7.844,27.729-34.566,22.862c-0.45-0.089-0.875,0.214-0.958,0.66 c-0.082,0.447,0.215,0.876,0.662,0.956C997.519,348.101,999.692,348.294,1001.738,348.294z"/><path fill="#FFF" d="M896.348,311.433c0.206,0,0.413-0.077,0.573-0.232c24.017-23.265,49.524-14.355,49.758-14.242 c0.386,0.239,0.872,0.111,1.113-0.276c0.24-0.384,0.104-0.902-0.281-1.143c-0.225-0.141-26.876-9.602-51.734,14.48 c-0.327,0.315-0.334,0.837-0.019,1.162C895.919,311.349,896.133,311.433,896.348,311.433z"/><path fill="#FFF" d="M902.924,314.438c0.204,0,0.407-0.075,0.567-0.228c11.662-11.114,25.629-12.538,25.77-12.55 c0.451-0.043,0.783-0.445,0.742-0.896c-0.041-0.453-0.441-0.787-0.894-0.743c-0.593,0.055-14.661,1.475-26.752,13 c-0.33,0.313-0.342,0.833-0.027,1.162C902.49,314.354,902.707,314.438,902.924,314.438z"/><path fill="#002464" d="M899.679,328.894c0-10.558,8.588-19.146,19.146-19.146c10.557,0,19.146,8.589,19.146,19.146 c0,10.557-8.588,19.146-19.146,19.146C908.267,348.039,899.679,339.45,899.679,328.894z M901.324,328.894 c0,9.65,7.85,17.501,17.5,17.501s17.501-7.851,17.501-17.501s-7.851-17.501-17.501-17.501S901.324,319.243,901.324,328.894z"/></svg>